<svg xmlns="http://www.w3.org/2000/svg" viewBox="0 0 262.65 262.65"><defs><style>.cls-1{fill:#50bc64;}.cls-2{fill:#fff;stroke:#fff;stroke-miterlimit:10;stroke-width:2px;}</style></defs><title>Presynce Logo Secondary</title><g id="Layer_2" data-name="Layer 2"><g id="Main_Logo_copy" data-name="Main Logo copy"><rect class="cls-1" width="262.65" height="262.65" rx="51.56"/><path class="cls-2" d="M227.72,130.17a98.85,98.85,0,0,1-.72,12q-.48,4-1.28,7.89c-.4,2-.87,3.92-1.39,5.85a98.25,98.25,0,0,1-9.14,22.45c-1.4,2.49-2.9,4.92-4.5,7.27a98.65,98.65,0,0,1-71.88,42.77c-3.21.32-6.48.48-9.79.48a99.83,99.83,0,0,1-17.66-1.57,98.19,98.19,0,0,1-45-20.9,4.72,4.72,0,0,1-1.54-5l.61-2.11,4.09-14,27.76.07-2.49,8.54a22.73,22.73,0,0,0,17.68,28.78l.26.05a94,94,0,0,0,92.19-37.11q2.58-3.53,4.83-7.28a93,93,0,0,0,9.69-22.43q.84-2.9,1.47-5.86c.56-2.59,1-5.23,1.35-7.9a96.15,96.15,0,0,0,.18-22.44h0a13.43,13.43,0,0,0-13.31-11.94l-35.1-.08-27.76-.07-26.32-.06-3.54,12.15h41.93a9.14,9.14,0,0,1,8.77,11.7L164,142l-2.3,7.89L161,152h0c-4.2,14.38-19.89,26.12-34.87,26.09h-.44l-26.32-.07L71.62,178l-23.54-.06H46.61a6.6,6.6,0,0,1-5.89-3.62,96.73,96.73,0,0,1-7-18.41q-.85-3.12-1.48-6.32c-.52-2.6-.94-5.24-1.25-7.9a99.39,99.39,0,0,1-.66-11.51,100.53,100.53,0,0,1,.54-10.47A98.59,98.59,0,0,1,33,107.33a97.36,97.36,0,0,1,8.08-22,98.82,98.82,0,0,1,100.79-53,98,98,0,0,1,48.2,20.29,99.6,99.6,0,0,1,13.58,13c.41.48.83,1,1.24,1.45a2.91,2.91,0,0,1,0,1.66,2.1,2.1,0,0,1-.76,1.07,2.6,2.6,0,0,1-2.94.26c-.36-.44-.73-.87-1.1-1.3h0a95.23,95.23,0,0,0-11.46-11.17A94,94,0,0,0,37.84,107.35a96.31,96.31,0,0,0-2.21,12.35,95.15,95.15,0,0,0-.58,10.47,93.28,93.28,0,0,0,.71,11.52c.32,2.67.76,5.31,1.31,7.9h0a7.94,7.94,0,0,0,7.77,6.31h82.74a6.11,6.11,0,0,0,5.87-4.41l.49-1.66,1.33-4.57a2.6,2.6,0,0,0-2.49-3.33l-22.86-.06-2.3,7.9-27.76-.07,2.3-7.9,6.44-22.1,3.56-12.22L96.37,93a10.67,10.67,0,0,1,10.24-7.68H214.46a4.09,4.09,0,0,1,3.69,2.35,98.47,98.47,0,0,1,9,32A100.53,100.53,0,0,1,227.72,130.17Z"/></g></g></svg>