<?xml version="1.0" encoding="utf-8"?>
<!-- Generator: Adobe Illustrator 27.5.0, SVG Export Plug-In . SVG Version: 6.00 Build 0)  -->
<svg version="1.1" xmlns="http://www.w3.org/2000/svg" xmlns:xlink="http://www.w3.org/1999/xlink" x="0px" y="0px"
	 viewBox="0 0 2100 2100" style="enable-background:new 0 0 2100 2100;" xml:space="preserve">
<g id="Layer_2">
	<rect style="fill:none;" width="2100" height="2100"/>
</g>
<g id="Layer_1">
	<g>
		<path style="fill:#96793B;" d="M362.717,1409.704c14.582,12.34,2.656,47.957-1.561,63.826c-2.287,8.759-3.81,17.831-8.275,25.82
			c-4.154,9.575-7.651,19.627-14.493,27.705c-4.09,6.364-8.543,12.665-14.544,17.392c-4.931,4.332-11.295,7.358-17.213,9.708
			c-7.046,3.128-14.69,4.931-22.431,4.574c-9.575,0.3-18.277-5.058-25.323-11.091c-4.134-4.058-10.11-8.326-8.874-14.881
			c0.472-2.784,1.867-5.224,3.294-7.606c3.759-6.154,7.492-12.308,11.461-18.322c7.797-11.69,15.85-23.208,24.405-34.356
			C299.47,1460.579,347.669,1399.339,362.717,1409.704z"/>
	</g>
	<path style="fill:#D9B978;" d="M911.092,1955.013c1.516-9.976-0.166-19.933-0.714-29.903c-1.274-16.767-2.548-33.515-4.638-50.187
		c-0.898-9.677-0.644-18.863-1.274-28.674c-0.057-2.905-0.847-5.905-0.306-8.779c0.472-1.127,0.981-2.306,0.503-3.523
		c-0.006-0.019-0.013-0.045-0.025-0.064c2.65-1.542,5.294-3.918,6.988-5.039c2.886-2.446,6.103-4.606,8.505-7.562
		c3.395-7.791,6.906-15.652,9.932-23.654c2.223-6.097,4.797-12.199,5.25-18.742c0.255-3.319,0.217-6.663,0.408-9.989
		c0.981-9.868,0.331-19.78-0.835-29.616c-1.516-8.243-0.815-16.602-1.434-24.922c-0.796-9.46-2.561-18.806-3.427-28.26
		c-0.637-7.485-0.707-14.901-0.956-22.437c-0.484-12.072-1.522-24.208-1.637-36.331c-0.892-16.111-2.828-32.158-3.847-48.257
		c-0.045-15.767,0.49-31.744,0.306-47.537c-0.115-11.403,0.885-22.787,1.051-34.191c1.414-0.051,2.796-0.624,3.682-1.764
		c9.881-0.886,19.774-0.79,29.642,0.287c2.561,0.274,6.071,0.35,8.849,0.127c3.453-0.013,7.345,0.58,10.887,0.019
		c26.648-3.402,23.826-35.031,21.042-54.964c-1.37-8.575-2.102-17.207-3.816-25.718c-1.115-9.333-2.287-18.685-4.657-27.947
		c-1.147-9.651-1.567-19.946-2.879-29.674c-2.568-25.922-5.077-51.843-7.307-77.784c-1.281-21.36-2.644-42.765-7.957-63.584
		c-2.58-11.091-4.179-22.411-7.689-33.267c-2.255-6.402-5.307-11.983-7.632-18.494c-3.122-6.071-5.765-12.365-8.677-18.526
		c-4.58-8.027-10.976-14.735-17.277-21.418c-2.446-2.867-5.186-5.447-8.269-7.619c-2.739-1.516-7.422-7.358-10.938-6.473
		c-6.224-4.23-12.932-7.638-19.863-11.097c-8.39-4.236-16.691-8.657-25.227-12.582c-12.429-6.829-25.424-12.518-38.624-17.678
		c-12.652-5.358-25.087-11.244-37.662-16.78c-9.549-4.988-19.628-8.874-28.967-14.232c-6.231-2.758-11.709-6.581-15.098-12.741
		c-4.383-7.568-7.377-16.544-12.563-23.8c-8.046-12.021-23.189-15.729-36.911-13.499c-9.855,0.701-19.73,0.497-29.559-0.548
		c-8.218-1.077-16.066-1.898-24.635-2.504c-5.077-0.159-10.352-0.873-15.563-0.987c0.204-0.51,0.248-1.115,0.083-1.841
		c-1.956-5.485-8.715-0.261-12.314,1.115c-7.696,3.313-10.409,11.55-15.13,17.806c-3.988,5.619-8.562,11.785-14.238,16.207
		c-9.365,7.632-21.348,9.11-32.515,13.142c-7.161,2.096-13.678,5.784-20.475,8.785c-6.804,3.115-14.225,5.568-21.023,8.804
		c-18.213,7.823-35.993,16.659-54.468,23.864c-25.444,9.849-49.805,22.775-71.604,39.242c-10.913,8.046-18.666,19.354-27.846,29.151
		c-6.861,7.281-13.149,15.054-19.678,22.634c-11.467,13.48-22.883,27.005-34.292,40.536c-1.147,1.363-0.949,3.459,0.408,4.599
		c1.07,0.892,2.586,0.968,3.74,0.299c-5.23,9.524-10.34,19.124-13.697,29.476c-6.6,21.182-5.275,43.708-5.995,65.642
		c0.236,5.211,0.236,10.473,1.108,15.633c2.032,8.212,5.765,15.914,8.817,23.781c7.301,18.755,20.558,34.77,26.272,54.181
		c3.873,16.117,7.129,32.439,9.894,48.785c2.65,17.825,3.803,35.828,2.79,53.895c-0.911,7.288-2.548,14.455-4.447,21.538
		c-0.408,3.631-4.103,9.951,1.185,11.429c5.326,0.382,7.721-9.454,10.231-13.232c4.364-7.868,8.314-16.264,12.881-24.061
		c3.765-7.198,7.746-14.302,11.734-21.424c0.236,3.287,0.439,6.575,0.662,9.862c2.07,20.717,2.383,41.708,1.975,62.59
		c0.293,24.794,1.542,49.658-0.178,74.618c0.204,19.385-0.612,39.3-1.593,58.787c-0.739,13.512-0.121,27.075-1.178,40.58
		c-0.714,12.639-2.835,25.278-1.758,37.949c1.542,20.551,5.542,40.937,14.608,59.571c2.931,6.708,6.065,13.384,10.135,19.481
		c3.861,5.6,8.212,11.403,7.97,18.602c0.134,7.16-1.459,14.193-1.644,21.348c-0.414,10.123-1.095,20.226-2.07,30.304
		c-0.452,9.059-1.593,18.028-2.478,27.043c-0.171,7.12-0.675,14.232-1.03,21.344h518.962
		C911.082,1955.783,911.087,1955.397,911.092,1955.013z"/>
	<g>
		<path style="fill:#FFC28F;" d="M392.877,909.83c0.936,9.919,0.675,20.277-2.656,29.757c-4.899,14.792-17.71,24.603-27.323,36.242
			c-8.568,10.518-17.589,20.921-23.889,33.044c-1.344,2.478-2.701,4.912-3.994,7.345c-2.045,15.557-2.618,31.266-3.192,46.97
			c-0.663,21.622-1.682,43.23-1.879,64.865c-0.956,29.368-4.873,58.494-7.109,87.773c-2.185,33.891-4.523,67.789-9.104,101.438
			c-1.351,11.454-2.134,22.972-2.981,34.484c4.67,8.09,8.874,16.506,12.11,25.24c7.275,15.971,11.824,32.872,14.913,50.11
			c3.128,15.722,7.938,32.222,2.867,48.034c-4.058,10.792-12.486,19.245-19.105,28.502c-9.677,11.951-18.71,24.405-28.47,36.293
			c-5.217,6.797-10.804,13.276-16.041,20.061c-5.096,6.441-10.339,12.875-16.939,17.857c-12.894,9.116-28.266,18.003-44.613,16.143
			c-21.825-0.452-43.657-9.537-58.424-25.807c-15.34-16.723-22.717-39.325-24.845-61.609c-1.771-13.314-0.764-27.393,1.319-40.402
			c2.809-25.456,6.549-50.773,11.282-75.936c2.128-16.729,7.25-32.91,10.021-49.518c3.701-19.443,6.281-39.077,10.231-58.469
			c3.134-21.8,7.097-43.46,11.524-65.036c3-14.378,4.383-29.629,5.886-43.944c2.962-22.405,8.243-44.523,9.428-67.151
			c2.491-17.774,4.95-35.541,5.479-53.519c-0.198-9.448-0.395-18.933-1.026-28.355c-0.917-1.484-0.554-3.485,0.924-4.472
			c0.07-0.032,0.134-0.064,0.204-0.089c-0.032-0.089-0.064-0.185-0.102-0.274c-1.841-4.58-4.714-8.613-7.314-12.779
			c-7.249-12.594-15.773-23.87-20.519-37.618c-6.912-19.112-9.129-41.141,0.223-59.832c2.313-4.16,5.039-8.161,8.307-11.626
			c2.434-2.23,5.51-3.612,8.32-5.294c2.81-1.637,5.67-3.408,8.817-4.071c0.172-1.529,0.72-3.173,0.975-4.453
			c1.134-5.167,2.727-10.212,4.95-15.015c4.638-11.282,13.951-19.901,24.896-24.998c2.09-1.077,5.734-3.02,9.142-3.905
			c-0.121-0.701,0.013-1.478,0.503-2.261c12.353-21.252,37.669-23.055,58.691-14.792c4.797,2.204,9.225,5.173,13.467,8.377
			c0.083-9.69-0.261-19.398,0.236-29.081c-0.108-13.55,1.777-26.985,2.593-40.497c0.586-6.816,2.09-13.505,3.491-20.195
			c2.414-14.557,7.855-31.649,23.845-35.764c12.951-2.51,16.691,3.822,20.946,14.786c1.497,6.084,0.478,12.48,0.561,18.678
			c0.643,16.863-1.325,33.636-1.574,50.48c-0.733,10.174,0.147,19.781-0.217,29.852c-0.548,14.639-0.873,29.565-0.886,44.052
			c0.006-0.14,0.006-0.28,0.006-0.42c-0.006,2.332-0.019,4.599-0.026,6.836c4.294,1.102,8.893,3.071,10.894,3.472
			c8.377,2.644,14.142,9.9,18.086,17.404C389.067,896.7,391.851,903.064,392.877,909.83z"/>
		<path style="fill:#FFC28F;" d="M1000.572,1943.336c-0.65-18.494-2.561-37.019-2.784-55.551
			c-1.083-15.251-0.427-30.458,0.714-45.683c0.433-18.978,0.605-37.981,0.924-56.965c0.93-14.002,0.038-27.973-1.268-41.931
			c-0.669-15.665-1.408-31.961-2.828-47.683c-1.108-10.836-1.229-22.501-1.395-33.515c-1.21-17.685-1.618-35.433-2.714-53.13
			c-1.605-21.405-3.23-42.485-5.37-63.985c-0.72-12.633-1.93-26.03-4.765-38.516c-1-5.288-1.058-11.69-5.937-15.047
			c-2.994-1.714-6.625-1.051-9.919-1.006c-9.18,0.032-18.366-0.427-27.521,0.529c-7.154,0.299-18.589-0.21-20.207,9.033
			c-2.179,9.722,0.37,19.723,1.172,29.489c1.293,12.728,14.856,210.609,14.48,220.101c-0.261,16.238-0.835,33.146-7.403,48.225
			c-3.211,7.88-7.262,15.499-11.467,23.055c-7.893,11.442-13.786,15.162-13.008,30.438c0.713,13.403-0.605,26.82,0.382,40.204
			c0.592,9.39,2.37,18.627,3.294,27.979c0.731,12.384,2.221,24.464,3.052,36.792h93.195
			C1001.233,1951.883,1001.075,1947.597,1000.572,1943.336z"/>
		<path style="fill:#FFC28F;" d="M887.145,744.037c-9.358-12.932-28.464-15.665-42.135-8.307
			c-0.745-8.613-3.427-16.697-4.217-25.425c-0.968-16.996-2.414-34.063-7.014-50.524c-1.937-7.32-3.555-14.882-7.275-21.551
			c-18.755-27.629-65.336-34.445-96.398-36.573c-12.906-1.223-25.769-3.134-38.758-3.243c-18.717-0.293-37.529-0.185-56.124-2.879
			c-11.779-2.28-23.125-6.606-35.082-8.02c-12.467-1.134-25.361-2.064-37.56,1.312c-24.074,6.957-44.116,25.947-52.124,49.709
			c-6.058,14.505-7.995,30.273-11.199,45.562c-1.23,12.04,0.497,24.195-0.096,36.274c0.128,8.109-2.937,15.435-5.88,22.819
			c-1.803-0.42-3.727-0.51-5.53-0.605c-2.121,0.108-4.052,0.93-5.893,1.968c-2.739,0.676-5.364,1.918-7.689,3.771
			c-6.555,3.956-9.339,10.664-10.256,17.812c-0.013,0.051-0.019,0.102-0.032,0.153c-2.898,13.658,0.452,28.12,7.798,39.854
			c3.714,5.109,8.186,9.677,12.614,14.168c6.727,7.403,15.945,7.702,25.253,7.657c11.983-0.35,23.138,32.311,27.177,42.166
			c2.204,6.09,5.606,11.607,8.67,17.283c3.103,6.103,6.383,12.142,10.263,17.805c12.818,19.405,30.801,36.14,52.525,44.95
			c5.039,2.14,7.906,2.032,9.594,6.084c-0.764,7.243-1.389,14.499-2.045,21.762c0.108,3.013-1.937,7.384,1.121,9.422
			c0.032,2.816,1.727,5.135,3.096,7.472c2.223,4.135,5.339,7.619,8.658,10.893c7.152,7.848,16.445,13.272,25.503,18.646
			c7.421,10.169,13.685,21.182,18.617,32.765c1.143,2.685,2.243,5.447,4.104,7.695s4.664,3.937,7.569,3.666
			c4.827-0.451,7.534-5.634,9.36-10.125c5.205-12.807,10.41-25.615,15.615-38.422c1.176-1.669,2.307-3.308,3.419-4.816
			c3.587-5.612,8.263-11.709,10.136-18.334c2.491-12.41,1.943-25.164,1.924-37.803c10.69-4.982,22.138-8.383,32.025-14.926
			c9.581-6.772,18.36-14.811,26.712-23.055c12.193-13.951,22.564-29.623,30.578-46.339c11.709-20.972,15.799-44.918,26.348-66.464
			c6.543-1.892,13.512-2.102,19.921-4.459c16.544-6.25,29.425-21.787,29.897-39.816
			C890.343,757.542,891.738,749.573,887.145,744.037z"/>
	</g>
	<g>
		<path style="fill:#5E4343;" d="M890.63,577.398c1.917,13.11-1.121,26.38-7.218,38.038c-4.587,8.696-8.816,17.965-16.729,24.202
			c-2.204,1.949-4.58,3.65-7.02,5.262c0.962,1.898,1.72,3.625,2.217,4.727c3.453,7.594,3.122,16.519,1.86,24.507
			c0.013,3.351-3.211,6.791-1.3,9.881c3.153,5.026,6.3,10.269,7.071,16.264c1.395,8.517-0.943,17.111-4.797,24.686
			c-3.185,6.141-8.345,11.04-11.607,17.13c-2.02,4.504-2.185,9.186-3.319,13.837c-0.79,6.09-1.949,14.697-10.231,13.059
			c-3.198-0.656-4.555-3.911-5.358-6.74c-3.134-9.224,1.019-20.22-4.638-28.667c-5.51-10.39-10.773-20.335-15.398-31.037
			c-3.676-9.199-6.033-18.952-7.753-28.693c-2.72-8.638-3.109-17.723-3.58-26.731c-1.389,1.274-2.829,2.491-4.287,3.682
			c-4.523,3.95-9.792,6.759-15.206,9.256c-5.396,2.676-11.384,5.409-17.092,7.014c-7.689,2.746-15.716,3.568-23.737,4.523
			c-5.46,0.956-11.008,1.242-16.544,0.987c-24.233-1.191-48.25-7.473-70.076-18.028c-15.117-7.619-29.368-16.837-44.746-23.979
			c-6.823-4.09-14.2-6.899-21.583-9.785c-5.937-2.975-11.811-3.81-18.252-4.421c-2.981-0.363-6.09,0.127-8.772,1.491
			c-1.178,0.835-2.281,2.376-3.484,3.542c-0.127,0.261-0.249,0.522-0.363,0.79c-0.943,4.351-1.465,8.365-1.898,12.735
			c-0.357,6.593-1.624,12.887-2.803,19.271c-3.631,17.907-12.945,33.84-22.335,49.263c-7.078,11.429-10.881,24.482-12.339,37.707
			c-1.045,11.097-0.491,22.259-0.605,33.381c-0.153,5.237,0.338,10.486,0.178,15.71c0.121,3.873-3.86,6.587-7.46,5.224
			c-2.389-0.917-3.37-3.561-4.154-5.784c-3.88-9.734-1.574-21.137-7.122-30.292c-2.351-3.192-5.077-6.109-8.072-8.702
			c-4.415-2.962-8.587-6.275-11.25-10.989c-13.92-18.857-17.468-45.689-7.097-66.967c-3.491-8.46-4.854-24.227-4.944-28.323
			c-1.51-15.034,0.401-30.196,5.517-44.409c4.498-11.856,12.607-21.29,22.329-29.202c4.001-5.753,7.307-12.047,12.359-17.003
			c5.759-5.593,12.416-10.301,19.5-14.066c14.913-8.282,31.668-12.002,47.696-17.43c9.97-4.013,19.245-9.6,28.616-14.824
			c14.085-8.313,28.151-16.799,43.479-22.634c18.691-7.243,38.911-11.155,58.972-10.664c15.761,1.796,31.273,7.517,44.211,16.723
			c7.058,4.854,12.397,11.607,18.124,17.882c1.599,1.669,3.262,3.313,5.014,4.835c2.255,0.866,4.536,1.669,6.855,2.319
			c5.389,1.019,10.881,1,16.34,1.109c8.721,0.191,17.423-0.796,26.151-0.701c5.975-0.07,12.053-0.433,17.831,1.382
			C874.818,528.459,887.419,542.239,890.63,577.398z"/>
	</g>
	<g>
		<path style="fill:#402626;" d="M571.593,571.606c-6.48-3.399,4.698-12.68,7.722-15.283c3.191-2.634,6.916-4.523,10.821-5.695
			c9.116-2.943,18.307-6.44,27.879-7.403c8.558,0.3,17.122-0.071,25.667,0.593c14.06,1.542,28.032,3.947,42.135,5.13
			c8.528-0.006,17.069,0.254,25.586-0.319c13.671-1.249,27.371-4.982,38.884-12.594c5.142-3.733,10.451-7.271,15.326-11.355
			c1.363-1.14,3.516-0.803,4.58,0.567c1.115,1.44,0.796,3.44-0.567,4.58c-2.567,2.141-5.255,4.198-8.008,6.102
			c-10.596,8.273-22.764,14.587-36.057,17.099c-13.354,3.143-27.172,2.533-40.784,2.389c-15.292-1.26-30.415-4.175-45.714-5.393
			c-7.305-0.09-14.613-0.198-21.914-0.244c-10.238,2.04-20.375,5.113-30.044,9.035c-4.148,2.6-7.879,5.833-10.661,9.88
			C575.621,570.654,573.866,572.565,571.593,571.606z"/>
		<path style="fill:#402626;" d="M847.165,640.466c-17.837-7.854-27.515-25.459-38.961-40.178
			c-13.672-13.865-31.421-24.09-51.036-25.527c-8.346-1.221-16.756-2.405-25.201-1.523c-4.224,0.039-4.445-6.304-0.128-6.523
			c7.355-0.734,14.715-0.101,21.997,1c7.226,1.172,14.691,1.589,21.634,4.02c14.704,4.897,27.826,13.972,38.42,25.196
			c4.465,5.754,8.332,11.703,12.786,17.315c4.581,5.618,8.971,11.638,15.13,15.645c2.773,1.777,5.674,3.357,8.581,4.9
			C854.034,636.937,850.97,642.494,847.165,640.466z"/>
		<path style="fill:#402626;" d="M787.64,630.226c-26.161-1.021-51.895-9.965-73.331-24.953
			c-8.192-5.194-16.443-10.326-23.901-16.561c-16.174-8.201-33.532-15.733-51.959-15.566c-1.701-0.522-2.829-2.16-2.383-3.956
			c1.062-3.579,5.555-2.422,8.39-2.389c17.688,1.364,34.485,8.536,49.983,16.774c9.009,7.62,19.363,13.332,29.04,20.018
			c11.331,7.145,23.914,12.249,36.761,15.949c9.119,2.834,18.661,3.494,28.126,4.198C792.548,624.284,791.951,630.61,787.64,630.226
			z"/>
		<path style="fill:#402626;" d="M488.342,670.959c-2.451-1.257-2.031-5.353,0.713-5.976c3.806-0.758,6.913-1.276,10.474-2.458
			c16.229-7.026,29.257-19.749,39.023-34.269c2.008-3.484,7.61-1.088,6.142,2.792c-8.302,11.517-17.599,23.115-29.986,30.495
			c-5.595,3.528-11.299,7.272-17.908,8.486C493.896,670.402,491.054,672.015,488.342,670.959z"/>
		<path style="fill:#402626;" d="M852.054,695.274c-8.021-2.852-16.596-5.773-23.258-11.213c-2.507-2.388-4.491-5.249-6.256-7.849
			c-1.614-2.449-2.924-5.098-4.448-7.605c-1.655-1.694-0.835-4.819,1.48-5.404c3.226-0.838,4.643,2.827,5.867,5.078
			c2.67,4.599,5.411,9.495,9.861,12.582c5.385,3.205,11.297,5.484,17.131,7.736C857.506,689.098,857.181,695.956,852.054,695.274z"
			/>
	</g>
	<path style="fill:#E08057;" d="M494.182,807.648c-5.133-4.571-7.582-11.095-4.352-17.538c1.134-2.308,2.6-4.605,2.511-7.281
		c-0.619-5.03-5.905-10.439-11.215-9.094c-1.184,1.213-2.192,2.91-4.228,2.449c-3.431-0.786-3.255-4.722-0.835-6.632
		c1.977-2.258,5.077-2.873,7.944-2.434c6.156,0.203,11.007,5.221,13.613,10.441c1.557,3.17,1.536,6.854,0.478,10.174
		c-0.986,3.119-3.338,5.802-3.247,9.232c0.117,3.909,6.93,6.319,3.929,10.338C497.652,808.612,495.479,808.857,494.182,807.648z"/>
	<path style="fill:#E08057;" d="M851.178,785.938c-0.994-1.44-0.643-3.555,0.841-4.536c10.049-6.814-2.943-18.591,6.969-27.947
		c3.912-4.14,6.921-6.962,12.926-5.199c2.692,0.276,6.014,2.147,5.6,5.275c-0.463,2.78-4.261,3.598-5.898,1.334
		c-1.063-0.246-2.143-0.411-3.223-0.559c-0.164-0.016-0.327-0.03-0.49-0.04c-10.703,6.982-4.46,11.908-5.43,21.626
		C862.778,780.202,855.488,791.122,851.178,785.938z"/>
	<path style="fill:#FFFFFF;" d="M714.133,832.991c4.742,1.058,10.153,4.307,10.103,9.757c-1.645,13.841-14.746,22.272-26.086,28.25
		c-5.237,2.772-11.112,3.679-16.838,4.829c-5.347,1.224-10.962,1.728-16.41,1.066c-11.913-0.973-22.963-6.193-32.336-13.431
		c-4.9-3.399-9.912-8.02-10.192-14.377c-0.089-6.208,3.485-13.211,9.885-14.746c10.537-2.525,21.057,1.983,31.571,2.594
		c6.17,0.917,12.348,0.08,18.531-0.431c2.261-0.366,4.773-0.363,6.782-0.803c1.476-0.056,3.415-0.512,5.231-0.617
		C700.909,833.395,707.394,831.507,714.133,832.991z"/>
	<g>
		<path style="fill:#E08057;" d="M723.009,959.379c-5.485,1.159-10.977,2.516-16.557,3.109c-14.41,1.096-28.909,1.179-43.218-1.038
			c-9.938-1.561-19.971-3.319-29.782-5.606c-2.898-0.892-5.867-1.497-8.868-1.937c-2.625-0.382-5.784-1.707-8.129,0.166
			c-0.006,0.005-0.01,0.011-0.016,0.016c0.511,0.564,0.954,1.257,1.334,2.169c-0.22,2.083-0.411,4.169-0.611,6.254
			c0.159,0.191,0.32,0.376,0.484,0.55c21.475,20.252,60.705,35.108,90.136,35.872c4.612,0.539,11.438,0.991,15.051-1.777
			c0.027-0.092,0.066-0.182,0.092-0.274c2.457-12.24,1.959-24.815,1.927-37.284C724.3,959.332,723.669,959.232,723.009,959.379z"/>
	</g>
	<g>
		<path style="fill:#402626;" d="M536.162,1871.846c0.057,1.21-0.478,2.23-1.128,3.198c-1.554,5.02-4.44,6.899-9.575,7.39
			c-4.357,0.809-8.728,1.675-13.187,1.369c-14.181-0.701-28.393,0.064-42.593-0.567c-11.097-1.726-22.233-3.491-33.35-4.995
			c-8.447-2.026-6.625-12.576-5.625-19.048c0.522-5.18-1.503-13.99,6.651-12.773c9.314,0.994,18.647,3.026,27.763,4.752
			c8.606,2.255,17.232,4.307,26.144,4.931c11.932,1.828,23.832,4.727,35.993,4.166c1.892,0.108,3.351-1.128,5.186-1.217
			c1.822-0.038,3.249,1.427,3.338,3.198C535.888,1865.45,536.137,1868.642,536.162,1871.846z"/>
		<path style="fill:#402626;" d="M643.505,1861.169c0.013,7.046,1.032,17.003-7.817,18.965c-9.53,2.09-19.417,0.854-29.056,2.109
			c-11.983,0.217-23.743,2.389-35.7,2.344c-6.906-0.045-16.748-2.93-16.289-11.403c-0.191-4.549-1.102-9.218-0.796-13.735
			c-0.344-6.472,18.5-3.287,22.991-4.121c8.6,0,17.041-1.593,25.597-2.153c10.384,0.083,20.679-0.917,30.954-2.389
			C641.798,1849.046,642.887,1854.117,643.505,1861.169z"/>
		<path style="fill:#402626;" d="M784.306,1845.88c6.383,0.675,28.221-2.86,25.941,7.804c-1.14,6.53,1.854,19.353-5.561,22.386
			c-4.969,1.198-10.199,0.816-15.283,1.16c-10.18,0.363-20.386,1.032-30.578,0.872c-4.052,0.14-7.938-2.497-6.281-6.931
			c1.268-3.778,2.051-7.67,2.771-11.582c0.535-2.771,1.038-5.542,1.675-8.282c-0.561-1.994,1.032-4.052,3.089-4.09
			C768.112,1846.319,776.216,1845.733,784.306,1845.88z"/>
		<path style="fill:#402626;" d="M891.515,1843.829c2.389,3.72,0.917,8.606,0.803,12.741c-0.14,5.988,0.28,16.009-7.976,16.028
			c-7.32,0.535-14.448,2.204-21.724,3.096c-6.402,0.733-12.868,0.465-19.271,1.178c-5.058,0.077-10.199,1.835-14.958-0.038
			c-4.083-1.656-3.727-7.116-2.816-10.645c0.363-4.185,0.784-8.345,1.077-12.537c-0.032-2.389,0.49-5.88,3.523-5.886
			c9.874-0.529,19.666-2.708,29.546-3.58c3.708-0.44,7.651-0.713,11.352-0.93C876.589,1843.268,887.508,1839.637,891.515,1843.829z"
			/>
	</g>
	<path style="fill:#402626;" d="M573.341,718.977c8.027,0.508,16.04-0.932,24.07-1.176c7.276-1.401,16.642,0.047,21.889-6.157
		c5.917-10.543-15.368-11.512-21.636-11.029c-7.678,1.107-15.595,1.01-23.332,2.466c-3.287,0.578-7.221,1.022-9.293,4.001
		C560.242,713.099,567.258,718.951,573.341,718.977z M570.513,710.732c-0.055,0.221-0.087,0.451-0.093,0.692
		c-0.097-0.072-0.192-0.148-0.287-0.224C570.232,711.024,570.344,710.85,570.513,710.732z"/>
	<path style="fill:#402626;" d="M726.616,716.257c7.959,1.896,16.402,0.894,24.534,1.115c6.136-0.735,12.627,0.312,18.41-2.254
		c7.488-3.199,8.682-9.264,0.419-12.414c-6.625-2.291-13.857-2.662-20.794-1.665c-3.714-0.812-7.467-0.855-11.252-0.554
		c-5.107,0.364-10.63,0.091-15.344,2.357C715.675,706.809,720.627,714.626,726.616,716.257z"/>
	<path style="fill:#E08057;" d="M678.186,813.77c-1.731,1.765-5.515,3.692-3.407,6.798c3.156,3.826,7.058-1.303,9.358-3.625
		c4.482-4.309,8.593-9.551,8.307-16.111c0.152-6.746-3.487-12.578-6.409-18.385c-6.269-10.971-7.477-22.259-3.127-34.242
		c1.246-4.12-4.76-6.055-6.199-2.044c-4.812,12.962-3.536,27.136,3.428,39.057C686.641,797.434,689.724,803.39,678.186,813.77z"/>
	<path style="fill:#E08057;" d="M311.124,1353.212c-1.943,0.612-2.599,2.739-2.714,4.587c-0.14,2.364-0.599,4.714-0.917,7.065
		c-2.171,15.465-2.703,31.214-4.38,46.772c-0.808,8.715-6.902,16.582-5.125,25.533c0.218,2.519,1.585,5.292,4.428,5.408
		c8.379-0.177,6.873-9.947,6.387-15.773c-0.033-3.219,0.276-6.396,0.817-9.558c0.438-2.074,1.969-4.605,0.183-6.423
		c1.331-13.56,1.973-27.15,3.564-40.685c0.511-4.048,1.208-8.083,1.575-12.149c0.676-1.162,0.526-2.643-0.332-3.764
		C313.825,1353.199,312.328,1352.837,311.124,1353.212z"/>
	<path style="fill:#402626;" d="M614.371,761.328c1.347-6.147-5.169-11.486-10.776-12.193c-4.452-2.057-9.017,1.474-12.094,4.446
		c-5.843,6.196-2.558,15.93,5.263,18.474C604.329,774.88,612.779,768.86,614.371,761.328z"/>
	<path style="fill:#402626;" d="M747.055,746.491c-4.617-3.282-10.739,0.025-14.587,3.128c-5.928,6.734-0.049,18.952,9.002,18.309
		c10.948,0.627,18.842-15.808,6.657-20.457C747.852,747.075,747.489,746.737,747.055,746.491z"/>
	<path style="fill:#E08057;" d="M355.755,868.031c-2.404-0.497-4.898,0.147-7.344,0.095c-0.919-0.052-1.836-0.07-2.753-0.089
		c-0.677-0.568-1.568-0.877-2.489-0.746c-5.883-1.46-9.242-6.794-12.103-12.043c-0.538-1.085-1.111-2.148-1.719-3.188
		c-0.274-0.505-0.548-1.005-0.823-1.488c-0.149-0.347-0.373-0.637-0.625-0.9c-4.491-6.898-10.364-12.862-16.408-18.458
		c-3.147-2.878-7.511,1.851-4.44,4.778c6.442,5.938,12.859,12.47,17.116,20.146c0.434,0.883,0.89,1.769,1.371,2.652
		c1.378,2.929,2.424,6.023,3.037,9.31c-2.943-0.116-5.884-0.387-8.827-1.025c-5.998-0.775-12.841-1.797-18.245,1.567
		c-3.059,2.236-5.759,5.226-7.203,8.741c-8.884-14.305-22.968-24.857-37.148-33.808c-3.298-1.843-6.643-3.81-10.161-5.141
		c-1.934-0.268-3.931-0.016-5.893-0.038c-2.951-0.021-7.98-0.229-7.485,4.02c0.32,1.964,2.283,3.037,4.144,2.627
		c2.62-0.113,5.241-0.107,7.861-0.19c7.668,3.655,14.827,8.34,21.591,13.484c8.849,7.327,18.542,14.999,23.318,25.888
		c7.322,14.162,17.036,32.779,5.689,47.416c-4.205,6.742-14.387,8.737-20.564,3.306c-0.186-0.142-0.386-0.254-0.592-0.345
		c-0.32-2.695-0.929-5.356-1.943-7.947c-5.723-13.2-25.96-27.671-39.101-33.174c-6.462-3.106-13.064-6.33-20.176-7.508
		c-2.813,0.06-5.605,0.216-8.422,0.057c-2.633,0.347-6.186-1.071-8.078,1.312c-1.477,1.918-0.163,5.067,2.294,5.224
		c4.643-0.053,9.295,0.106,13.935-0.066c14.282,4.077,27.84,10.772,39.32,20.444c5.936,5.253,12.911,10.532,14.978,18.576
		c1.929,7.166,0.545,14.516-0.395,21.719c-0.633,7.437-7.269,10.601-14.078,9.918c-5.186-1.312-10.069-5.013-12.085-10.049
		c-0.93-3.335-1.235-6.97-3.523-9.744c-5.534-5.375-13.441-7.597-19.264-12.671c-2.063-1.606-4.83-4.546-7.326-1.949
		c-1.185,1.287-1.153,3.427,0.172,4.612c1.186,0.958,2.379,1.913,3.588,2.846c0.114,1.024,0.665,2.007,1.698,2.569
		c4.404,3.856,8.247,8.328,12.249,12.586c1.007,3.19,3.122,5.918,5.095,8.572c5.663,6.057,13.342,9.517,19.876,14.435
		c6.046,5.058,9.175,12.62,9.57,20.432c0.24,2.7-0.903,6.894,2.911,7.382c5.165,0.062,3.553-6.668,3.332-10.046
		c-0.663-6.234-2.45-12.426-6.613-17.258c-1.356-2.038-3.018-3.753-4.848-5.292c9.164-1.131,15.369-7.495,15.999-17.586
		c0.482-3.139,0.892-6.331,1.052-9.519c1.703,0.807,3.487,1.4,4.656,1.778c14.181,2.963,24.745-8.949,27.465-21.848
		c0.548-0.293,1.009-0.723,1.315-1.264c1.161-2.281,3.777-2.422,6.048-2.815c2.108,0.113,4.18,1.295,5.767,2.626
		c-0.268,1.192-0.731,2.485-0.828,3.67c-2.89,2.961-5.406,6.299-7.557,9.834c-3.667,5.745-6.122,12.097-8.58,18.417
		c-1.056,2.469-2.094,4.957-2.237,7.67c-0.319,2.937-0.592,5.873-0.866,8.817c-0.166,1.771,1.325,3.351,3.058,3.453
		c1.791,0.115,3.294-1.283,3.453-3.058c0.303-3.268,0.583-6.542,0.99-9.805c4.647-13.66,10.859-28.77,23.759-36.687
		c1.232-1.246,3.45-2.093,4.676-3.386c3.874,1.187,7.625,2.801,11.063,5.416c3.652,2.262,7.085-3.056,3.574-5.46
		c-2.403-1.459-4.701-3.099-7.262-4.262c-8.16-3.855-17.478-3.897-25.848-7.149c-6.245-2.422-10.813-7.609-14.126-13.275
		c-4.282-6.523-6.404-15.181,0.475-20.455c0.019,0.333,0.038,0.663,0.053,0.988c0.411,2.997,1.115,5.957,2.982,8.409
		c4.853,7.326,12.958,12.077,21.749,12.518c4.275,0.164,4.599-6.151,0.331-6.517c-8.964-0.438-19.075-7.576-18.625-17.285h0
		c3.162-0.119,6.384,0.51,9.701,1.052c5.9,1.183,11.915,0.849,17.887,0.598c5.151,0.236,10.293,0.302,15.439-0.093
		c1.429,0.677,3.242,0.162,4.113-1.174C359.238,871.205,357.882,868.689,355.755,868.031z"/>
	<path style="fill:#E08057;" d="M957.788,1535.308c-8.162-3.026-16.072-6.68-23.023-11.991c-1.473-1.824-4.599-1.325-5.523,0.811
		c-1.503,3.693,3.206,5.189,5.44,7.039c6.366,4.674,13.834,7.482,21.189,10.378C959.974,1542.734,961.847,1536.691,957.788,1535.308
		z"/>
	<path style="fill:#FCE6BA;" d="M734.814,1847.096c1.399-0.069,2.892-0.116,4.094,0.604c2.108,1.262,2.346,4.167,2.344,6.624
		c-0.004,5.875-0.009,11.75-0.013,17.624c-0.002,2.088-0.036,4.297-1.13,6.076c-1.986,3.226-6.422,3.65-10.209,3.724
		c-21.095,0.411-42.19,0.823-63.285,1.234c-3.061,0.06-6.635-0.125-8.402-2.626c-0.901-1.275-1.111-2.898-1.295-4.449
		c-0.697-5.892-1.395-11.783-2.092-17.675c-0.948-8.007,4.528-7.45,10.622-7.718c7.621-0.335,15.24-0.751,22.859-1.126
		C703.809,1848.624,719.312,1847.86,734.814,1847.096z"/>
	<g>
		<path style="fill:#96793B;" d="M410.081,1396.105c3.09-8.153,6.587-16.096,10.626-23.819c4.383-8.884,8.747-17.759,12.938-26.737
			c3.661-8.122,7.907-16.29,9.346-25.278c1.034-3.644,1.065-9.796-3.95-10.059c-2.803-0.025-4.376,2.51-5.358,4.759
			c-2.242,5.45-3.927,11.139-5.281,16.875c-1.346,6.795-3.06,13.482-6.007,19.779c-13.538,29.209-28.913,57.444-40.891,87.405
			c-2.777,6.387-5.545,12.787-8.461,19.118c-0.756,2.463-3.645,4.961-2.172,7.597c-1.837,4.313-0.934,9.045-0.57,13.546
			c0.411,2.874-0.784,7.408,2.557,9.111c10.925,3.357,10.605-16.285,12.684-23.08c1.89-8.072,7.06-15.651,9.333-23.705
			c1.803-6.678,3.2-13.451,5.46-20.003C402.721,1412.799,406.398,1404.429,410.081,1396.105z"/>
		<path style="fill:#96793B;" d="M439.619,1273.154c-0.262,2.839-2.205,7.61,1.816,8.587c4.603,0.7,4.06-4.841,4.656-7.868
			c0.354-2.382,0.726-4.849,1.073-7.287c0.759-5.605,1.846-11.332,2.311-17.023c0.155-6.636-0.071-13.292-0.376-19.921
			c-0.496-18.077-5.558-36.227-13.772-52.289c-2.474-3.536-7.712,0.071-5.428,3.625c7.245,14.697,12.013,31.072,12.633,47.498
			c0.346,6.392,0.394,12.78,0.498,19.174c-0.294,5.96-1.442,11.535-2.244,17.56C440.396,1267.839,439.996,1270.504,439.619,1273.154
			z"/>
		<path style="fill:#96793B;" d="M413.748,1107.017c5.417,3.347,11.514,5.826,17.933,6.268c11.914,0.434,22.725-5.045,33.318-9.849
			c11.428-6.05,22.918-11.952,34.393-17.907c8.148-3.186,15.428-7.26,23.579-10.608c9.822-3.799,20.003-8.877,24.934-18.71
			c2.911-5.997,7.612-12.662,5.479-19.589c-0.851-3.007-4.395-6.796-7.257-3.682c-1.191,1.414-0.904,3.376,0.389,4.593
			c0.472,0.504,0.74,1.187,0.869,1.86c0.264,1.558-0.293,3.077-0.816,4.518c-2.247,5.242-4.525,10.735-8.532,14.899
			c-6.117,6.317-14.988,8.788-22.852,12.34c-3.399,1.513-6.666,3.299-10.046,4.844c-18.559,7.54-35.354,18.747-53.858,26.409
			c-19.317,8.146-24.964,4.069-42.069-5.032c-1.599-0.771-3.593,0.007-4.326,1.599
			C402.997,1103.699,410.905,1104.822,413.748,1107.017z"/>
		<path style="fill:#96793B;" d="M918.539,1115.537c-0.019-1.777-1.522-3.249-3.3-3.223c-1.468,0.016-2.723,1.044-3.105,2.404
			c-5.097,8.045-12.056,14.121-21.702,8.833c-10.756-5.42-21.422-11.087-32.637-15.555c-14.017-7.123-27.791-14.701-42.127-21.17
			c-12.501-5.934-25.636-11.139-36.128-20.596c-3.196-2.6-5.64-6.258-7.144-10.106c-0.116-2.819,0.075-5.646,0.138-8.468
			c2.414-3.481-2.546-7.187-5.244-3.883c-1.554,1.709-1.239,4.102-1.351,6.236c-0.064,2.268-0.248,4.574-0.026,6.836
			c0.902,4.069,3.4,7.72,5.931,10.977c14.619,15.119,35.097,21.394,53.458,30.768c14.69,7.464,29.122,15.429,44.376,21.712
			c8.725,3.924,16.795,10.186,26.398,11.659c5.043,0.66,10.182-1.361,13.939-4.702c2.389-2.04,4.297-4.517,6.218-6.982
			C917.253,1118.971,918.559,1117.27,918.539,1115.537z"/>
		<path style="fill:#96793B;" d="M929.963,1268.082c1.693-2.582,1.011-5.862,0.894-8.77c-0.884-9.222-1.938-18.743-0.945-28.018
			c1.381-7.817,4.705-15.875,2.862-23.859c-0.573-2.538-2.931-4.357-5.536-4.198c-3.866,0.136-5.896,3.979-6.74,7.307
			c-2.995,12.402,0.488,25.105,1.736,37.517c0.334,4.871,0.454,9.955,0.89,14.864c1.336,24.044,1.878,48.166,0.534,72.22
			c-1.31,13.642-1.872,28.214-2.822,42.033c-1.648,13.764-2.945,27.451-3.132,41.329c-0.489,9.263-1,19.04-1.519,28.466
			c-0.522,10.13,0.825,20.229,0.274,30.368c-0.126,4.548-0.177,9.103-0.384,13.645c-0.039,2.086-1.335,4.496,0.799,6.027
			c6.405,3.187,5.724-6.386,5.86-10.256c0.168-7.258,0.499-14.515,0.287-21.775c-1.008-12.221,0.099-24.299,0.65-36.56
			c0.645-9.153,0.807-18.371,1.235-27.896c0.861-10.204,2.524-20.327,2.994-30.572c0.378-15.578,2.471-31.305,2.771-46.957
			C931.458,1304.694,930.587,1286.378,929.963,1268.082z"/>
		<path style="fill:#96793B;" d="M897.918,1836.889c-11.251,5.11-23.822,5.443-36,6.282c-7.868,0.017-15.664,0.822-23.608,0.426
			c-11.028-0.732-22.13-1.465-33.171-0.612c-14.755,1.549-29.568,1.03-44.364,0.408c-10.189-0.142-20.328,0.354-30.521,0.739
			c-8.091,0.416-16.104,0.8-24.089,1.176c1.964-2.858,1.434-8.336,2.062-11.354c0.585-5.476,1.114-10.957,1.669-16.436
			c1.944-20.004,1.724-40.317,0.147-60.348c-0.894-6.299-1.631-12.599-2.026-18.946c-0.89-8.208-2.859-16.266-3.409-24.506
			c4.449-2.349,8.924-4.707,13.824-6.603c5.367-1.932,9.729-5.654,14.633-8.454c5.242-2.845,9.675-6.91,14.315-10.546
			c8.247-5.728,17.499-10.184,24.959-16.981c1.716-1.651,3.531-3.796,4.077-6.243c0.882-5.149-5.206-6.567-8.734-4.096
			c-3.948,1.818-5.942,5.683-8.35,9.049c-2.879,3.495-7.494,5.51-10.021,9.281c-5.308,2.937-9.738,7.047-14.526,10.711
			c-4.934,3.172-9.986,6.273-14.911,9.478c-6.507,2.978-13.195,5.545-19.371,9.237c-6.958,3.887-14.646,6.626-21.988,9.766
			c-8.389,2.786-16.534,6.201-24.814,9.279c-3.873,1.363-7.734,2.758-11.645,4.02c-1.688,0.548-2.663,2.401-2.121,4.096
			c0.538,1.699,2.439,2.668,4.096,2.121c6.849-2.21,13.625-4.683,20.316-7.332c8.166-3.348,16.848-5.971,24.947-9.607
			c3.149-1.131,6.117-2.493,9.028-3.939c0.786,7.85,2.682,15.591,3.331,23.473c0.309,6.463,1.378,12.858,2.096,19.277
			c1.391,16.847,1.03,33.798,0.37,50.67c-1.168,10.287-1.975,20.63-3.292,30.89c-1.023,1.446-1.165,3.12-0.445,4.317
			c-27.823,1.3-55.291,2.539-83.751,4.584c-24.118-0.47-48.072,3.383-72.039,5.434c-15.879,0.317-31.787-2.812-47.714-3.613
			c-8.934-0.552-18.388-1.642-27.419-2.213c-8.545-1.077-17.058-2.351-25.698-2.393c-5.571-0.127-11.155-0.361-16.723-0.421
			c-7.547,0.654-15.375,0.749-22.582-1.912c-0.806-0.304-1.626-0.637-2.117-1.375c-1.223-1.287-3.326-1.344-4.612-0.114
			c-5.432,8.005,14.438,10.43,20.703,10.276c11.864-0.409,23.772-0.251,35.631,0.586c24.326,3.138,48.997,4.317,73.479,6.909
			c11.183,1.418,22.412,0.775,33.533-0.87c9.321-1.107,18.691-1.759,28.03-2.713c8.972-0.993,17.989-1.09,27.005-1.044
			c13.278-0.919,26.606-1.272,39.847-2.618c34.068-1.289,68.107-3.589,102.304-4.199c17.348,0.715,34.654,1.103,51.956-0.715
			c11.694-0.367,23.356,1.041,35.04,1.028c10.289-0.357,20.579-0.419,30.814-1.618c7.31-0.477,14.664-1.717,21.445-4.556
			c2.515-0.553,5.656-2.196,4.61-5.235C901.517,1837.175,899.555,1836.194,897.918,1836.889z"/>
		<path style="fill:#96793B;" d="M703.023,1933.28c-0.084-13.99-1.005-28.104,0.35-42.039c0.953-4.203-5.187-5.691-6.325-1.593
			c-1.803,15.137-0.49,30.628-0.53,45.874c0.027,6.887-0.249,13.771-0.452,20.647h6.602
			C702.818,1948.549,703.014,1940.912,703.023,1933.28z"/>
		<path style="fill:#96793B;" d="M691.487,1746.409c-0.542-3.405-5.488-4.055-8.205-2.987c-8.031,2.381-9.361,15.269-0.414,17.271
			C690.008,1762.305,696.451,1751.971,691.487,1746.409z"/>
		<path style="fill:#96793B;" d="M683.213,1492.154c-0.542-3.405-5.488-4.055-8.205-2.987c-8.031,2.381-9.361,15.269-0.414,17.271
			C681.734,1508.051,688.177,1497.716,683.213,1492.154z"/>
		<path style="fill:#96793B;" d="M683.213,1276.304c-0.542-3.404-5.488-4.054-8.205-2.987c-8.031,2.381-9.361,15.269-0.414,17.271
			C681.734,1292.2,688.177,1281.866,683.213,1276.304z"/>
		<path style="fill:#96793B;" d="M555.6,1337.757c15.08,6.63,29.643-16.294,12.48-23.495
			C554.185,1307.114,539.092,1331.545,555.6,1337.757z"/>
		<path style="fill:#96793B;" d="M491.825,1351.894c0.701,15.915,1.016,31.97,3.682,47.753c1.226,6.9,1.644,14.243,4.809,20.596
			c13.363,18.227,37.614,22.277,58.851,22.927c6.048,0.047,12.055-0.633,18.111-0.458c10.8-0.736,21.445-3.088,31.808-6.148
			c12.975-3.862,28.857-8.824,32.011-23.89c2.384-7.837,1.668-16.213,1.453-24.29c-0.486-13.977-1.375-27.952-0.663-41.937
			c0-1.765-0.272-3.472-0.446-5.215c0.092-2.215-0.232-4.922-2.95-5.238c-1.726-0.198-3.459,1.108-3.599,2.879
			c0.329,5.696,0.689,11.377,0.127,17.105c0.099,10.228,0.542,20.443,0.95,30.668c0.696,15.958,2.254,33.513-16.277,39.363
			c-12.847,5.11-26.461,8.469-40.207,10.029c-7.549,0.128-15.074,0.675-22.623,0.559c-15.012-0.867-30.766-2.935-43.168-12.135
			c-7.272-4.899-9.497-9.532-10.543-18.143c-4.315-23.995-4.647-48.249-5.389-72.623c0.266,0.153,0.532,0.307,0.794,0.457
			c5.053,3.084,10.621,4.861,16.251,6.555c8.479,3.488,17.34,7.02,25.915,10.397c7.727,3.055,15.656,6.294,24.125,6.014
			c18.26-0.152,32.58-12.815,48.065-20.806c18.326-10.237,29.904-9.005,29.782-33.942c-0.263-28.212,1.259-29.583-27.667-32.19
			c-2.112-0.166-4.223,0.056-6.336,0.037c-2.335-0.51-5.581-0.366-5.908,2.632c-0.191,1.714,1.109,3.485,2.886,3.606
			c6.43,0.301,12.827,0.416,19.22,1.485c6.764,0.694,10.944,0.559,10.909,8.651c0.003,10.193,2.242,21.408-2.666,30.812
			c-2.695,3.676-7.401,5.016-11.3,7.066c-4.609,2.353-9.182,4.765-13.825,7.053c-8.567,4.433-16.341,10.609-25.322,14.358
			c-10.761,5.788-23.198,6.193-34.458,1.166c-10.889-4.227-21.682-8.756-32.585-12.907c-6.081-1.793-12.717-4.264-17.894-8.297
			c-0.348-0.79-0.969-1.469-1.726-1.887c-2.388-7.857-0.137-16.631-0.11-24.782c0.142-8.036,2.929-18.325,12.327-19.247
			c0.731-0.139,1.746-0.426,2.586-0.571c13.409-2.728,27.184-2.85,40.733-4.697c4.529-0.548,9.065-1.089,13.595-1.631
			c1.764-0.21,2.994-2.013,2.733-3.72c-0.28-1.803-1.962-2.943-3.727-2.733c-4.427,0.535-8.861,1.064-13.295,1.599
			c-8.943,1.373-17.976,1.663-26.979,2.471c-5.217,1.116-10.512,1.386-15.712,2.625c-3.653,0.755-7.547,1.713-10.49,4.191
			c-9.986,8.878-7.869,23.496-9.178,35.524c-0.072,4.492,0.001,9.148,1.285,13.471c0.318,0.711,0.734,1.348,1.193,1.951
			c-0.062,2.188,0.368,4.626,0.236,6.37C491.412,1340.486,491.619,1346.192,491.825,1351.894z"/>
		<path style="fill:#96793B;" d="M743.067,1302.369c-0.122,24.936,11.456,23.705,29.782,33.942
			c15.486,7.991,29.806,20.654,48.065,20.806c8.469,0.281,16.398-2.959,24.125-6.014c8.575-3.376,17.436-6.908,25.915-10.397
			c5.631-1.694,11.198-3.47,16.251-6.555c0.262-0.15,0.528-0.304,0.794-0.457c-0.743,24.374-1.074,48.628-5.389,72.623
			c-1.045,8.611-3.271,13.244-10.543,18.143c-12.402,9.201-28.156,11.269-43.168,12.135c-7.549,0.116-15.075-0.431-22.623-0.559
			c-13.746-1.56-27.36-4.919-40.207-10.029c-18.531-5.849-16.973-23.405-16.277-39.363c0.408-10.224,0.851-20.439,0.95-30.668
			c-0.562-5.728-0.202-11.409,0.127-17.105c-0.14-1.771-1.873-3.077-3.599-2.879c-2.719,0.316-3.042,3.023-2.95,5.238
			c-0.174,1.743-0.446,3.45-0.446,5.215c0.712,13.985-0.177,27.96-0.663,41.937c-0.215,8.078-0.931,16.454,1.453,24.29
			c3.154,15.066,19.037,20.028,32.011,23.89c10.362,3.06,21.008,5.411,31.808,6.148c6.057-0.175,12.063,0.505,18.111,0.458
			c21.237-0.651,45.488-4.701,58.851-22.927c3.165-6.353,3.583-13.696,4.809-20.596c2.667-15.783,2.981-31.838,3.682-47.753
			c0.206-5.702,0.413-11.408,0.606-17.118c-0.132-1.744,0.297-4.182,0.236-6.37c0.459-0.603,0.875-1.24,1.193-1.951
			c1.284-4.323,1.357-8.979,1.285-13.471c-1.31-12.028,0.807-26.646-9.178-35.524c-2.943-2.479-6.837-3.437-10.49-4.191
			c-5.2-1.24-10.495-1.509-15.712-2.625c-9.003-0.808-18.036-1.098-26.979-2.471c-4.434-0.535-8.868-1.064-13.295-1.599
			c-1.765-0.21-3.446,0.93-3.727,2.733c-0.261,1.707,0.968,3.51,2.733,3.72c4.529,0.542,9.065,1.083,13.595,1.631
			c13.549,1.847,27.324,1.97,40.733,4.697c0.84,0.146,1.856,0.432,2.586,0.571c9.398,0.922,12.185,11.211,12.328,19.247
			c0.027,8.151,2.279,16.925-0.11,24.782c-0.757,0.418-1.378,1.097-1.726,1.887c-5.177,4.033-11.813,6.503-17.894,8.297
			c-10.903,4.151-21.696,8.68-32.585,12.907c-11.26,5.027-23.697,4.622-34.458-1.166c-8.98-3.749-16.755-9.926-25.322-14.358
			c-4.643-2.287-9.217-4.699-13.826-7.053c-3.899-2.05-8.605-3.39-11.3-7.066c-4.909-9.404-2.669-20.619-2.666-30.812
			c-0.036-8.093,4.144-7.958,10.909-8.651c6.392-1.069,12.79-1.184,19.22-1.485c1.778-0.121,3.077-1.892,2.886-3.606
			c-0.327-2.998-3.574-3.142-5.908-2.632c-2.112,0.019-4.223-0.202-6.335-0.037C741.808,1272.786,743.33,1274.156,743.067,1302.369z
			"/>
		<path style="fill:#96793B;" d="M830.162,1337.757c16.508-6.212,1.415-30.644-12.479-23.495
			C800.519,1321.463,815.083,1344.388,830.162,1337.757z"/>
		<path style="fill:#96793B;" d="M585.472,1248.695c5.834,0.325,11.676,0.248,17.506,0.496c6.744,0.703,13.876,0.923,20.326-1.458
			c8.159-3.592,8.961-15.044,4.766-21.931c-3.758-4.028-10.094-2.848-15.083-2.925c-7.708,0.039-16.179,1.542-24.023,0.753
			c-6.389-0.473-13.237-1.301-19.707-1.484c-7.904-0.032-15.816,0.344-23.712-0.077c-8.755-1.147-17.324-0.936-26.144-0.849
			c-1.927,0.056-3.798-0.727-5.638,0.084c-1.797,0.15-3.648,0.049-5.397,0.628c-7.55,2.799-8.767,13.266-6.757,20.085
			c1.695,5.341,7.78,7.671,12.915,8.263c13.5-0.468,26.578,0.323,39.811-0.333C564.753,1250.26,575.077,1247.774,585.472,1248.695z"
			/>
		<path style="fill:#96793B;" d="M706.429,1681.561c-0.346-6.567-0.747-13.132-1.115-19.697
			c-1.029-19.976-1.489-39.922-1.663-60.023c-2.249-37.89-2.585-75.874-2.879-113.835c0.018-10.216-0.547-20.393-1-30.591
			c-0.208-16.584,0.024-33.395-0.031-50.015c-0.496-24.849-0.016-49.699-0.14-74.554c-1.591-29.391-0.755-58.829,0.733-88.212
			c0.419-11.689-0.979-23.317-1.55-34.971c-0.25-13.999,0.42-28.018-0.018-42.009c0.359-20.691-1.861-41.254-3.574-61.83
			c0.007-10.255-2.126-20.329-3.497-30.448c-0.551-2.333-1.179-4.658-1.775-6.99c-0.487-0.33-1.018-0.581-1.616-0.694
			c-1.828-0.346-3.639,0.736-4.714,2.286c0.079,0.309,0.156,0.618,0.237,0.926c3.582,13.895,4.618,28.231,5.313,42.542
			c4.157,32.094,2.986,64.48,3.14,96.755c0.843,14.752,2.399,29.49,1.038,44.275c-1.021,24.865-1.757,49.788-0.32,74.648
			c0.261,28.868-0.221,57.729,0.257,86.596c-0.136,19.469-0.407,38.944,0.778,58.384c0.63,34.158,0.327,68.407,1.965,102.557
			c1.319,29.57,1.409,59.185,2.99,88.758c0.253,7.229,1.23,14.481,0.907,21.705c-0.587,1.578,0.185,3.423,1.737,4.108
			c1.6,0.724,3.573-0.023,4.306-1.656C706.852,1687.016,706.494,1684.236,706.429,1681.561z"/>
		<path style="fill:none;" d="M691.011,1069.604c0.036,0,0.072,0,0.107,0"/>
		<path style="fill:#96793B;" d="M747.538,1028.702c-1.739-0.057-3.357,1.376-3.364,3.153c-0.043,0.948-0.284,1.872-0.49,2.797
			c-2.309,7.941-5.522,15.593-8.448,23.329c-2.033,4.383-3.673,10.273-7.834,13.373c-5.293,4.69-9.949-1.282-13.246-5.251
			c-3.302-4.627-4.669-10.214-6.779-15.626c-1.091-2.761-2.998-5.062-4.914-7.328c-0.974-0.019-1.925,0.307-2.505,1.076
			c-0.513,0.679-0.655,1.567-0.692,2.417c-0.049,1.124,0.069,2.252,0.328,3.347c2.78,3.871,3.619,9.222,5.739,13.472
			c2.51,6.196,7.589,12.433,13.728,15.474c13.662,4.161,19.816-11.837,23.545-22.077c1.757-4.448,3.563-8.872,5.008-13.436
			C748.733,1039.754,753.989,1029.58,747.538,1028.702z"/>
		<path style="fill:#96793B;" d="M667.561,1046.392c-0.48-0.89-1.264-1.668-2.23-1.925c-5.446,6.66-10.455,13.528-15.491,20.677
			c-6.021,6.654-9.186,17.006-18.774,19.381c-6.688,2.813-10.863-2.733-13.024-8.38c-2.733-5.78-5.689-12.141-9.084-17.678
			c-4.859-7.689-9.426-15.565-14.69-22.991c-2.255-3.757-6.774-7.777-7.269-12.11c1.713-3.925-3.985-6.565-5.918-2.739
			c-2.234,4.382,1.118,8.699,3.325,12.352c8.776,12.055,16.893,24.554,23.864,37.777c3.704,7.077,5.893,16.149,13.664,19.959
			c9.258,3.52,19.683-2.646,25.011-10.193c4.041-6.42,8.74-12.343,13.13-18.526c2.398-3.304,5.25-7.05,7.931-10.411
			C668.455,1049.862,668.406,1047.959,667.561,1046.392z"/>
	</g>
	<g>
		<path style="fill:#D9B978;" d="M1394.341,1509.055c0.019,0.034,0.037,0.067,0.058,0.101
			C1394.38,1509.124,1394.36,1509.089,1394.341,1509.055z"/>
		<path style="fill:#D9B978;" d="M1900.395,1291.186c-0.142-16.247-0.642-32.488-0.525-48.748c0.179-8.256-1.37-15.914-1.66-24.22
			c-0.882-13.156-3.919-26.003-6.665-38.863c-2.209-12.625-7.016-24.547-11.465-36.506c-3.19-8.954-8.127-17.155-13.835-24.72
			c-5.109-7.553-11.372-14.205-18.598-19.758c-5.017-3.98-10.546-7.164-16.402-9.768c-0.704-0.636-1.642-1.018-2.592-1.351
			c-0.765-0.401-1.567-0.74-2.345-0.87c-0.006,0-0.012,0-0.019,0c-7.732-2.968-15.624-5.294-23.128-8.88
			c-5.566-3.005-11.545-6.405-17.395-9.133c-6.566-3.61-12.872-7.682-19.493-11.206c-5.535-3.289-11.527-5.664-17.395-8.262
			c-6.825-3.067-13.193-7.01-19.814-10.466c-5.751-2.845-11.545-5.634-17.148-8.775c-17.031-8.843-34.611-16.716-48.705-30.335
			c-5.054-4.591-10.311-8.948-15.569-13.304c-4.177-3.597-7.923-7.8-12.755-10.545c-11.138-5.875-24.208-7.411-36.648-7.825
			c-16.914-0.796-33.495,2.468-49.55,7.534c-0.876,0.272-1.753,0.555-2.623,0.858c-0.592-1.5-2.462-2.481-4.011-1.808
			c-4.196,2.049-8.065,4.776-11.978,7.324c-11.928,8.398-19.845,20.906-29.397,31.686c-5.763,5.603-11.459,11.403-18.346,15.649
			c-7.331,4.597-15.39,7.991-23.004,12.113c-12.637,7.787-25.318,15.464-38.295,22.659c-13.082,8.343-25.639,16.315-39.073,24.343
			c-10.996,6.572-21.19,14.371-32.094,21.097c-6.411,3.925-13.101,7.547-18.771,12.526c-6.066,5.813-9.78,13.514-14.55,20.332
			c-5.381,7.448-10.219,15.26-15.093,23.047c-7.837,13.335-16.914,25.892-24.96,39.116c-8.121,12.631-14.828,26.096-23.659,38.351
			c-7.775,11.169-16.334,22.147-24.226,33.359c-1.376,1.851-2.943,4.06-4.535,6.251c-1.012,1.395-0.445,3.468,0.944,4.369
			c0.414,0.222,0.808,0.352,1.185,0.414c-3.338,5.202-6.676,10.404-10.009,15.606c-0.926,1.45-0.512,3.437,0.938,4.369
			c0.703,0.45,1.543,0.586,2.32,0.426c-3.388,7.133-6.702,14.365-6.547,22.301c0.672,7.115,5.677,12.816,9.435,18.605
			c3.709,5.319,7.442,10.62,11.268,15.865c8.01,10.379,16.661,20.486,26.707,28.971c9.447,7.831,20.647,13.069,30.181,20.752
			c5.461,3.69,10.521,7.874,15.599,12.057c2.227,2.166,5.3,1.956,8.022,0.938c3.875,1.814,6.516,4.708,10.212,7.065
			c5.103,5.035,10.564,0.167,14.464-3.746c3.635-3.166,7.078-6.516,10.274-10.114c6.177-6.232,12.533-12.286,18.808-18.426
			c2.857,9.694,6.27,19.24,8.047,29.218c1.777,11.064,5.146,21.955,7.152,32.988c1.216,9.626,3.579,19.555,5.918,29.07
			c0.648,3.863,0.87,7.8,1.795,11.62c0.895,3.178,1.993,6.288,3.067,9.404c-0.037,0.031-0.08,0.056-0.117,0.08
			c-0.142,0.086-0.284,0.167-0.438,0.228c0.963,3.147,1.882,6.3,2.734,9.478c5.091,15.032,7.972,30.693,10.422,46.354
			c3.425,15.964,4.807,32.198,6.041,48.452c0.79,34.513-1.999,68.963-4.498,103.353c-1.006,13.298-3.03,26.472-5.356,39.597
			c-2.616,16.358-3.739,32.982-7.954,49.044c-3.375,15.661-6.263,31.427-9.188,47.206c-1.888,9.003-2.438,18.21-4.566,27.17
			c-1.247,5.714-1.629,11.545-2.363,17.34c-0.95,5.591-0.019,8.614,5.282,11.187c1.241,0.685,2.468,1.395,3.709,2.098
			c-0.512,7.639-0.679,15.285-0.043,22.93c0.414,3.32,0.852,6.634,1.352,9.941c-0.852,1.401-0.451,3.203,0.845,4.202
			c1.895,1.678,4.394,2.326,6.886,2.203c2.345,0.13,4.93,0.358,7.331,0.512c11.009,1.141,22.029,2.53,33.106,2.734
			c3.863,0.1,7.721,0.003,11.576-0.164l1.292,0.205l35.877-1.002c8.616-0.104,17.23-0.398,25.844-0.722l374.283-10.454
			l-3.766-96.886l-0.007,0c0.076-6.562-0.033-13.124-0.422-19.673c-1.876-28.545-7.09-56.721-11.175-85.001
			c-3.073-20.036-7.152-39.9-10.021-59.973c-3.005-22.733-6.535-45.379-10.428-67.97c2.882-15.637,5.764-31.267,8.651-46.897
			c3.851-22.301,8.88-44.453,11.138-66.989c2.653-35.771,4.511-71.703,8.435-107.37c1.314,0.648,2.851-0.049,4.227-0.525
			c3.085,0.161,6.72-0.198,9.805-1.191c1.685-0.42,3.573-1.037,4.912-2.086c0.006-0.006,0.012-0.012,0.025-0.018
			c0.352-0.216,0.636-0.506,0.864-0.858c0.006-0.006,0.006-0.012,0.012-0.019c0.605-0.771,0.938-1.721,0.846-2.894
			c0.16-1.382,0.142-2.863,0.29-4.011c0.5-7.997,0.808-16.019,0.932-24.035C1900.352,1336.676,1900.728,1313.931,1900.395,1291.186z
			"/>
	</g>
	<path style="fill:#FFC28F;" d="M1763.45,770.764c5.769,18.494,9.126,39.523,1.37,57.924c-3.77,7.689-8.509,14.89-12.601,22.424
		c-3.918,7.257-7.034,14.927-11.348,21.974c-9.182,16.204-22.881,29.78-38.801,39.369c-7.794,4.893-15.599,9.836-23.887,13.859
		c-8.065,3.727-16.846,6.202-24.035,11.558c-4.715,4.283-9.083,9.497-11.237,15.538c-1.024,9.466,0,18.962,0.747,28.354
		c-0.525,19.795-0.339,39.609-0.451,59.411c0.913,17.124,0.926,34.185-0.364,51.241c-0.5,8.762-0.703,17.568-1.907,26.281
		c-0.691,8.941-0.796,17.938-2.073,26.824c-1.839,12.57-1.956,25.386-4.036,37.925c-1.969,7.436-3.184,14.785-4.282,22.332
		c-0.864,4.177,0.617,12.884-5.461,12.767c-3.32-0.691-3.592-4.869-5.147-7.318c-2.826-4.85-4.974-10.219-6.787-15.464
		c-3.647-8.503-8.867-16.26-13.36-24.22c-5.961-11.138-10.706-22.862-16.093-34.266c-8.441-14.205-16.587-28.076-22.566-43.553
		c-2.833-7.133-6.905-13.674-10.009-20.665c-5.374-12.829-10.206-25.837-14.957-38.9c-3.622-8.719-5.214-18.185-5.683-27.571
		c0.932-13.754,1.494-28.083-2.987-41.152c-4.578-2.542-9.071-5.245-13.958-7.158c-10.57-3.375-21.474-5.807-31.804-9.916
		c-13.187-5.646-25.516-13.434-36.092-23.128c-6.202-5.603-12.175-11.484-17.117-18.24c-6.054-8.275-10.533-17.574-14.952-26.787
		c-10.046-18.814-13.113-39.529-13.279-60.621c-1.358-25.386,1.691-50.655,7.312-75.387c3.178-16.556,8.04-32.742,15.13-48.057
		c8.984-18.716,15.309-38.597,24.485-57.202c8.077-14.927,19.228-27.965,30.051-40.955c9.238-10.805,18.771-21.807,34.438-19.956
		c8.096,0.426,16.254,0.888,24.171,2.721c12.088,3.159,23.492,8.627,34.105,15.167c11.052,6.189,21.351,13.489,30.749,21.986
		c6.245,5.326,13.008,10.046,18.783,15.914c6.072,6.134,10.429,13.68,14.785,21.073c5.702,9.854,11.187,19.845,16.679,29.817
		c10.385,1.654,20.585,4.461,30.563,7.763c13.36,4.751,26.398,10.706,38.351,18.358c13.47,10.009,25.744,21.998,34.358,36.512
		C1758.748,754.517,1760.414,762.946,1763.45,770.764z"/>
	<path style="fill:#FFC28F;" d="M1322.556,1426.854c3.412,2.32,0.111,7.491-3.431,5.307c-0.358-0.315-0.716-0.629-1.074-0.944
		c-6.152,6.973-12.631,13.662-18.623,20.789c-7.164,7.547-13.736,15.606-20.888,23.171c-13.508,17.154-26.386,35.037-42.793,49.612
		c-8.565,8.287-19.425,13.236-29.971,18.457c-6.016,2.74-12.52,4.782-19.135,5.282c-7.047,1.24-14.186,1.981-21.233,0.148
		c-3.375-0.549-6.269-1.802-9.49-2.647c-2.221,0.173-4.048-1.425-5.868-2.487c-7.911-5.14-16.192-9.824-23.22-16.186
		c-0.938-0.771-1.29-1.74-1.216-2.666c-6.954-4.159-13.378-9.262-17.858-15.859c-1.697-3.215-3.289-6.356-4.801-9.268
		c-0.518-0.845-1.018-1.703-1.5-2.567c-7.368-12.551-11.113-26.848-12.385-41.275c-1.802-17.074,1.456-34.112,2.839-51.056
		c0.296-8.694,0.919-17.377,1.746-26.034c1.808-18.043,1.425-36.209,3.412-54.222c1.283-13.699,3.166-27.33,4.585-41.016
		c1.456-8.553,3.351-17.019,4.443-25.633c4.005-28.706,8.546-57.338,14.698-85.667c2.832-13.995,6.886-27.706,9.978-41.646
		c2.042-9.04,3.869-18.111,6.201-27.077c2.388-9.873,4.554-19.808,5.825-29.866c-0.179-0.37-0.271-0.771-0.265-1.197
		c0.055-5.918,1.135-11.811,0.58-17.734c-0.574-4.937-1.58-9.805-2.499-14.693c-1.253-7.325-2.03-14.785-4.745-21.764
		c-3.696-9.201-9.552-17.315-13.316-26.497c-4.406-9.275-10.348-18.543-12.261-28.681c-3.092-14.316-3.776-61.731,17.753-60.472
		c0.154-12.076,10.428-22.313,22.708-20.943c3.671-9.139,12.934-14.427,22.566-14.797c10.755,0.673,19.647,8.071,27.589,14.699
		c0.827,0.623,1.654,1.265,2.481,1.9c0.049-0.703,0.111-1.401,0.173-2.104c-0.161-12.983,0.08-25.972-0.963-38.925
		c-0.302-9.768-1.882-19.487-1.062-29.255c0.673-7.028,1.043-14.625,1.913-21.53c1.073-5.264,1.826-11.163,5.572-15.279
		c4.221-4.665,12.847-5.535,16.976-0.321c2.135,2.82,4.288,5.936,5.017,9.46c0.487,3.166,0.58,6.393,0.691,9.589
		c1.431,27.083,3.517,53.864,6.22,80.651c0.617,6.516,0.975,13.31,1.456,19.968c2.252,2.092,4.436,4.264,6.633,6.405
		c6.239,6.202,13.631,12.292,15.92,21.159c3.721,20.048-4.202,40.14-10.268,58.911c-6.152,20.098-10.355,40.745-10.971,61.793
		c-2.018,18.932-2.351,37.919-3.277,56.887c-1,17.469-2.363,34.914-2.45,52.42c-1.635,32.458-3.443,64.965-2.617,97.466
		c0.592,22.399,2.53,44.737,4.011,67.087c0.506,11.237,1.728,22.116,1.734,33.309c-0.055,1.166,0.006,2.394,0.037,3.622
		c18.642,15.803,37.092,31.828,55.912,47.378c7.862,6.8,15.791,13.508,23.566,20.406c1.012-0.672,2.16-0.858,3.511,0.093
		c1.166,0.889,1.598,2.598,0.944,3.9C1322.235,1426.558,1322.395,1426.706,1322.556,1426.854z"/>
	<path style="fill:#FFC28F;" d="M1906.19,1873.296c-2.228-21.11-3.814-42.226-5.819-63.385c-1.463-28.083-3.912-56.11-6.121-84.143
		c-1.271-18.574-1.771-37.172-3.042-55.746c-1.617-39.585-5.535-79.046-5.597-118.705c-0.031-15.908-1.024-31.81-1.006-47.718
		c0.58-16.655,0.957-33.309,1.345-49.97c1.117-18.339,4.566-62.398,4.653-63.095c-0.204-6.251-13.041-1.178-16.824-0.357
		c-3.609,0.901-21.307-0.383-21.745-0.148c-0.327,0.13-4.731,8.305-6.403,11.964c-3.653,11.12-8.701,21.733-12.397,32.853
		c-3.215,9.04-6.991,17.963-8.398,27.509c-4.869,24.516-6.436,49.89-8.54,74.807c-2.283,23.165-4.838,46.582-2.993,69.92
		c0.426,6.269,1.135,12.508,2.147,18.703c0.191,0.938,0.302,2.049,0.568,3.067c0,0.006,0.006,0.012,0.006,0.019
		c0.549,4.252,1.141,8.497,1.932,12.706c3.875,25.732,9.503,51.136,14.334,76.695c5.683,33.161,12.119,66.162,17.975,99.28
		c1.864,13.002,4.023,25.972,7.158,38.733c1.265,8.756,2.406,17.5,3.974,26.213c0.654,5.406,0.889,10.91,1.333,16.321
		c0,0.012,0,0.025,0,0.037c0.006,0.049,0.006,0.093,0.012,0.142c0.066,1.219,1.918,45.789,2.008,46.997h46.138
		C1909.911,1936.214,1907.163,1883.073,1906.19,1873.296z"/>
	<path style="fill:#E08057;" d="M1644.541,994.599c-0.068,2.37,0.555,4.665,0.524,7.028c-0.87,7.115-10.169,5.196-15.285,5.245
		c-11.768-2.104-23.615-4.332-35.025-8.022c-17.722-7.01-35.019-15.334-50.649-26.256c-6.097-3.53-12.928-8.059-14.193-15.507
		c-0.155-1.753-0.333-3.931-0.025-5.911c-0.099-3.32,2.03-5.757,5.954-5.072c15.106,3.153,29.891,8.701,45.478,8.88
		c11.705,0.666,23.152-1.475,34.525-3.937c3.394-1.006,7.245-1.962,10.595-2.653c3.894-0.901,16.161-5.948,16.346,0.907
		c-0.08,0.759-0.327,1.32-0.685,1.734c0.161,0.321,0.309,0.648,0.426,0.987c0.975,3.11,0.969,6.417,0.746,9.638
		C1643.609,972.644,1644.239,983.615,1644.541,994.599z"/>
	<g>
		<path style="fill:#5E4343;" d="M1808.304,777.243c1.66,10.077,0.852,20.548-1.568,30.428c-1.24,3.894-3.61,7.257-5.399,10.897
			c-1.327,2.845-2.462,5.659-3.289,8.608c0.34,1.58,0.703,3.153,0.833,4.708c0.592,6.43,1.333,12.897,0.987,19.357
			c-1.308,28.644-14.081,45.681-36.574,61.997c-4.196,3.715-8.546,7.399-11.601,12.15c-2.53,3.591-5.936,6.436-8.67,9.861
			c-7.294,7.164-17.259,12.514-27.373,13.884c-4.381,0.481-8.8,0.444-12.841,2.141c-8.768,3.69-15.661,6.319-24.689,9.274
			c-9.071,3.159-18.524,4.579-28.101,4.801c-5.454,0.217-7.602-3.718-8.966-8.748c-1.884-6.945,0.239-14.541,4.339-20.455
			c5.27-7.602,13.443-11.121,19.826-17.41c8.454-8.565,15.785-18.932,22.276-28.928c4.517-7.034,8.275-14.52,12.662-21.628
			c4.147-6.899,6.164-15.069,11.915-20.962c5.43-5.004,12.885-7.232,17.932-12.804c0.111-0.111,0.222-0.222,0.333-0.333
			c-0.025-0.987-0.025-1.975,0.012-2.968c-1.024-13.057-0.654-25.682-1.506-38.665c-0.654-6.461-0.062-13.063-1.469-19.431
			c-3.869-16.605-17.938-28.817-33.038-35.123c-12.452-6.158-25.3-11.521-38.82-14.655c-18.006-5.196-35.574-11.718-52.87-18.802
			c-16.908-8.917-33.297-19.617-48.761-30.557c-11.872-7.608-22.504-16.963-32.71-26.639c-4.511-4.128-9.343-7.929-13.409-12.495
			c-1.37-1.5-2.635-3.104-3.844-4.758c-12.095,12.712-22.498,26.991-30.119,42.843c-2.715,6.967-5.795,13.791-8.355,20.82
			c-1.647,6.677-3.826,13.211-6.14,19.684c-5.091,20.363-9.509,40.856-13.329,61.398c-1.647,13.958-3.659,27.848-5.763,41.745
			c-0.79,5.671-1.13,11.329-3.042,16.741c8.775,26.244,22.757,50.828,41.584,71.092c8.312,9.324,17.722,17.006,27.892,24.096
			c8.867,6.103,20.505,9.867,24.744,20.703c1.95,4.573,0.685,9.7,1.543,14.501c1.487,10.138-5.535,11.693-13.995,10.934
			c-14.149-0.993-28.36-2.672-42.164-6.016c-14.285-4.344-28.243-10.644-40.424-19.339c-11.083-9.312-24.917-15.569-33.087-27.99
			c-0.975-1.82-2.487-3.184-3.523-4.912c-0.691-1.487-1.302-3.005-1.913-4.523c-0.889-0.697-1.654-1.555-2.37-2.431
			c-4.887-4.961-10.342-9.46-14.335-15.229c-4.313-7.473-7.399-15.692-10.058-23.893c-2.437-8.843-3.548-17.987-5.171-27.003
			c-1.123-11.107-3.345-22.146-3.851-33.303c-0.444-6.621,0.777-13.076,1.536-19.61c0.864-10.811,2.592-21.585,4.319-32.26
			c1.302-5.998,2.265-12.082,3.974-17.981c0.599-1.796,1.006-4.609,2.277-6.14c1.203-5.837,2.4-11.662,3.486-17.5
			c3.11-14.612,6.782-29.089,9.904-43.695c6.177-20.19,13.403-40.146,24.485-58.208c6.991-9.972,12.502-21.017,20.548-30.224
			c6.541-6.473,13.032-13.088,20.191-18.882c4.98-3.869,10.626-6.745,16.198-9.676c6.596-3.425,13.909-4.93,21.314-4.863
			c2.104-0.043,4.221-0.222,6.319-0.086c0.531-0.352,1.148-0.549,1.734-0.796c3.128-1.296,6.072-3.055,9.096-4.505
			c10.194-6.911,22.072-10.879,33.797-14.433c9.336-2.468,18.66-5.165,28.336-5.751c17.457-1.728,35.358-2.104,52.666,1.178
			c11.336,2.536,22.332,7.578,32.532,12.804c13.798,6.868,26.484,14.958,38.024,25.133c10.206,7.911,19.894,16.432,28.416,26.158
			c16.414,20.314,32.316,41.868,41.603,66.433c7.96,22.758,16.914,45.2,26.33,67.396
			C1796.012,741.793,1804.269,758.91,1808.304,777.243z"/>
	</g>
	<path style="fill:#402626;" d="M1430.217,903.748c-1.715-0.049-3.116-1.531-3.067-3.252c0.099-3.276,0.383-6.522,0.703-9.78
		c0.679-10.675,1.759-21.591,2.684-32.1c0.636-6.757,1.296-12.736,2.006-19.333c0.16-2.19,0.037-4.949,1.913-6.454
		c2.943-2.376,6.985,1.438,4.572,4.393c-0.635,7.38-1.53,14.723-2.209,22.042l-0.004-0.008c-0.82,9.548-1.799,18.918-2.396,28.338
		c-0.284,4.702-0.876,8.571-0.95,13.088c-0.049,1.692-1.492,3.068-3.164,3.068C1430.276,903.749,1430.247,903.748,1430.217,903.748z
		"/>
	<path style="fill:#402626;" d="M1401.187,805c-8.769-0.37,8.707-35.611,10.836-40.282c3.523-8.121,6.121-16.636,8.842-25.053
		c7.195-20.264,11.293-41.541,19.925-61.305c3.425-10.336,7.929-20.271,13.594-29.557c2.258-3.338,4.073-7.263,7.17-9.873
		c2.314-1.438,5.443,1.092,4.56,3.665c-13.137,17.364-19.765,38.493-27.139,58.701c-3.863,11.989-6.306,24.448-10.762,36.265
		c-4.153,12.631-7.88,25.485-14.038,37.332c-3.468,7.818-6.51,15.05-8.565,23.103c-0.706,2.642-0.358,7.035-3.883,7.036
		C1401.558,805.032,1401.378,805.022,1401.187,805z"/>
	<path style="fill:#402626;" d="M1400.722,714.203c-1.58-0.469-2.715-2.308-2.135-3.931c1.469-4.097,3.314-8.059,5.048-12.051
		c4.196-9.305,8.583-18.543,12.995-27.755c5.529-11.076,11.101-22.147,17.179-32.939c6.825-11.076,15.266-21.202,24.288-30.563
		c6.492-6.578,12.903-13.662,21.739-17.062c4.98-1.191,6.041,5.337,0.87,6.485c-9.324,4.529-15.507,12.674-22.671,19.826
		c-5.467,6.035-10.435,12.526-15.322,19.03c-9.527,15.044-16.852,30.86-24.596,46.774c-3.739,7.966-7.571,15.896-10.971,24.01
		c-1.807,2.811-1.908,8.273-5.538,8.273C1401.334,714.3,1401.039,714.268,1400.722,714.203z"/>
	<path style="fill:#402626;" d="M1736.953,720.884c-3.018-3.776-5.979-7.584-9.441-10.891c-6.93-6.269-15.371-10.441-23.029-15.711
		c-8.441-4.745-15.414-11.508-23.085-17.34c-7.318-5.856-14.47-11.903-21.011-18.629c-7.337-6.411-15.346-11.971-22.918-18.08
		c-11.021-9.645-23.849-16.439-36.845-22.93c-2.845-1.376-5.671-2.764-8.626-3.875c-2.53-0.956-5.418-1.055-7.719-2.487
		c-1.345-1.074-1.573-3.091-0.506-4.443c2.042-2.462,5.054-0.191,7.535,0.16c9.077,2.579,17.154,7.775,25.54,11.971
		c10.392,5.263,19.549,12.428,28.484,19.82c6.127,4.536,12.175,9.17,18.031,14.057c5.584,5.109,10.675,10.626,16.716,15.143
		c7.158,5.856,14.316,11.724,21.61,17.401c5.43,3.462,10.86,6.954,16.291,10.428c9.651,5.202,17.586,12.866,24.047,21.634
		c1.737,2.379-0.38,5.049-2.65,5.049C1738.525,722.163,1737.653,721.788,1736.953,720.884z"/>
	<path style="fill:#402626;" d="M1538.225,587.046c-1.037-3.091,1.777-4.19,4.153-5.042c6.035-2.956,11.175-6.825,17.383-9.33
		c9.182-4.177,18.321-8.577,28.404-10.027c12.989-2.518,27.212-1.691,39.819,1.691c5.393,1.03,10.768,2.289,15.575,5.041
		c5.066,2.468,9.213,6.294,13.841,9.41c1.475,0.889,1.962,2.863,1.074,4.338c-2.265,3.388-5.862,0.173-8.09-1.567
		c-6.751-5.905-15.402-9.892-24.189-11.163c-18.265-4.776-38.419-3.813-55.585,4.357c-6.473,2.9-12.619,5.393-18.42,8.984
		c-2.368,1.213-7.58,5.208-11.068,5.208C1539.856,588.946,1538.819,588.421,1538.225,587.046z"/>
	<path style="fill:#402626;" d="M1719.785,921.872c0.765-6.097,2.184-12.094,3.122-18.173c3.9-19.129,7.115-38.684,6.146-58.27
		c-0.222-3.203-0.401-6.405-0.796-9.589c-0.21-1.709,1.141-3.295,2.826-3.462c1.74-0.179,3.252,1.117,3.462,2.826
		c0.408,3.672,0.679,7.362,0.845,11.052c0.839,17.155-1.715,34.284-4.745,51.118c-1.45,6.43-2.382,12.94-3.665,19.394
		c-1,2.882,0.135,8.238-4.128,8.355C1721.204,925.075,1719.637,923.588,1719.785,921.872z"/>
	<path style="fill:#FFFFFF;" d="M1585.01,883.419c-6.542-0.598-13.019-2.403-18.899-5.347c-5.012-1.701-10.389-3.7-14.565-6.944
		c-2.528-1.577-5.047-3.08-7.001-5.308c-6.052-7.211-3.773-17.426,5.267-20.698c4.733-1.736,9.735-1.246,14.75-0.761
		c3.009,0.292,6.03,0.585,8.995,0.4c12.239,0.824,24.537-0.418,36.625-2.329c7.586-1.061,21.624-2.918,28,1.589
		c11.585,10.525-3.186,23.661-12.466,29.413c-10.522,6.475-22.69,11.013-35.096,10.548
		C1588.752,883.909,1586.882,883.726,1585.01,883.419z"/>
	<path style="fill:#E08057;" d="M1713.522,847.066c-1.823-0.063-3.125-1.62-3.055-3.258c0.037-1.085,0.684-2.15,1.142-3.11
		c2.319-5.191,5.052-9.369,7.176-14.483c2.65-5.364,3.638-11.453,6.171-16.802c2.426-3.013,7.169,0.322,5.145,3.63
		c-2.616,9.144-6.144,18.052-10.832,26.319c-0.845,1.775-1.74,3.505-2.556,5.289
		C1716.385,846.067,1714.984,847.121,1713.522,847.066z"/>
	<path style="fill:#E08057;" d="M1195.335,972.666c-3.184-2.556,1.883-9.767,2.907-12.927c3.405-8.482,8.507-15.962,13.933-23.226
		c1.599-2.491,4.674-4.144,5.655-6.938c-1.907-4.067-3.225-6.744-8.202-5.447c-5.454,0.97-11.041,2.202-16.57,0.999
		c-11.48-1.074-26.936-14.816-15.582-25.534c6.335-5.143,14.662-6.689,21.992-9.92c4.737-2.421,9.417-5.83,14.983-5.575
		c7.774,0.875,14.87,6.057,21.974,8.825c0.409,0.213,1.078,0.383,1.499,0.586c1.643,0.332,2.753,2.007,2.457,3.653
		c-1.732,5.633-8.322,0.316-11.656-0.883c-6.092-2.072-12.361-8.034-18.983-4.879c-3.485,1.57-6.618,3.844-10.248,5.095
		c-5.982,2.434-12.593,3.882-17.819,7.816c-5.976,6.104,4.811,13.054,10.349,14.144c6.651,2.048,13.295-0.34,19.929-0.911
		c6.382-0.8,11.621,6.6,12.217,12.267c-0.124,2.932-1.949,5.29-4.016,7.216c-2.733,2.823-4.716,5.587-6.782,8.747
		c-5.471,6.996-8.787,15.021-12.224,23.109c-0.489,1.09-0.609,2.308-1.309,3.301C1198.79,973.556,1196.656,973.781,1195.335,972.666
		z"/>
	<path style="fill:#E08057;" d="M1181.645,970.036c-2.597-0.591-4.89-1.998-7.318-3.01c-3.602-1.709-1.267-7.214,2.467-5.814
		c2.342,0.917,4.473,2.426,7.003,2.83c2.147-0.077,4.465-0.528,6.356-1.582c5.306-2.649,6.237-8.945,6.994-14.265
		c0.802-9.058-2.022-17.977-6.758-25.542c-0.988-4.113,5.614-5.591,6.401-1.373C1207.513,936.647,1207.523,972.869,1181.645,970.036
		z"/>
	<path style="fill:#E08057;" d="M1155.33,978.946c-6.074-1.835-9.321-8.384-10.101-14.297c-0.283-2.627-0.241-5.279,0.098-7.898
		c0.328-1.447,0.445-2.967-0.246-4.336c-1.376-2.301-3.29-4.543-5.442-6.13c-3.658-2.065-6.842-4.835-10.38-7.083
		c-2.329-1.436-4.875-2.759-6.189-5.288c-2.412-3.927-0.423-9.503,4.875-7.973c2.517,0.714,3.826,3.191,5.16,5.139
		c4.149,5.511,9.794,9.067,14.567,13.903c3.233,3.573,5.162,8.408,3.835,13.199c-0.747,5.815,0.895,15.648,8.554,14.874
		c7.947-0.023,9.984-9.865,11.805-16.026c1.045-5.395,2.509-10.895,1.664-16.413c-0.586-4.531-3.717-7.832-6.63-11.085
		c-3.367-3.604-7.075-6.839-10.791-10.072c-6.087-5.594-12.084-11.677-19.479-15.505c-2.268,0.074-4.543,0.057-6.798,0.289
		c-3.107-0.031-4.14-4.573-1.346-5.949c1.792-0.841,3.892-0.413,5.813-0.586c1.937-0.038,4.036-0.414,5.664,0.871
		c7.57,3.927,13.94,10.29,20.153,15.994c9.164,8.248,21.118,17.104,20.012,30.847
		C1178.592,959.463,1174.581,983.409,1155.33,978.946z"/>
	<path style="fill:#E08057;" d="M1177.684,904.706c-5.743-4.478-9.813-10.723-15.673-15.075c-2.102-1.528-3.724-3.917-6.379-4.441
		c-1.582-0.057-3.233-0.85-3.555-2.55c-0.604-2.689,2.211-4.529,4.628-3.684c2.791,0.458,5.123,1.967,7.102,3.931
		c6.939,5.009,11.472,11.581,17.901,16.944C1184.864,902.463,1180.909,907.278,1177.684,904.706z"/>
	<path style="fill:#E08057;" d="M1204.661,888.196c-3.897-2.001-1.729-6.893,2.289-6.393c1.855,0.425,3.045,2.265,3.344,4.029
		C1210.632,888.877,1206.636,890.534,1204.661,888.196z"/>
	<path style="fill:#96793B;" d="M1373.934,1391.042c-1.924-1.599-1.129-4.079,0.493-5.56c1.244-2.057,2.196-4.284,3.234-6.442
		c3.669-7.144,4.813-15.156,7.473-22.665c1.062-2.987,2.049-5.98,2.968-9.015c3.428-11.358,7.149-22.814,7.933-34.717
		c1.589-13.649,3.537-27.254,2.81-41.04c0.19-4.092,6.323-3.99,6.313,0.197c0.482,12.322-0.54,24.568-2.388,36.734
		c-0.793,12.483-3.37,24.354-7.306,36.16c-1.653,6.093-3.794,12.005-5.727,18c-2.028,7.698-4.182,15.356-7.966,22.412
		C1380.334,1387.974,1377.882,1393.757,1373.934,1391.042z"/>
	<path style="fill:#96793B;" d="M1403.032,1255.612c-1.796-0.049-3.018-1.537-3.067-3.252c-0.553-11.856-0.047-24.233-1.74-35.938
		c-1.973-15.158-6.852-28.879-12.253-42.925c-6.28-13.648-14.603-26.159-23.808-37.96c-1.802-1.977-4.447-4.008-1.913-6.682
		c1.245-1.183,3.303-1.079,4.468,0.172c11.796,13.802,21.963,29.478,28.773,46.361c6.428,17.182,11.79,35.05,12.125,53.463
		c0.296,7.898,0.451,15.803,0.667,23.702C1406.333,1254.279,1404.674,1255.661,1403.032,1255.612z"/>
	<path style="fill:#96793B;" d="M1622.16,1238.731c-1.485-0.477-2.082-2.205-2.845-3.418c-0.716-0.938-1.483-1.834-2.006-2.407
		c-9.397-10.165-19.077-20.061-30.896-27.423c-17.294-13.994-35.106-27.161-51.094-42.676c-5.624-6.29-13.872-11.894-16.284-20.277
		c-0.297-11.199,11.596-20.182,17.229-28.863c-9.402,3.19-19.014,6.186-28.86,7.568c-10.065,1.541-8.112-11.483-7.865-17.872
		c-0.089-19.094-2.89-38.208-9.154-56.275c-1.432-4.351-2.626-8.771-4.208-13.07c-0.895-2.587-3.461-6.35,0.037-8.071
		c1.518-0.685,3.542-0.012,4.178,1.586c1.723,4.141,3.224,8.381,4.479,12.687c4.659,14.297,8.909,28.827,9.834,43.922
		c0.801,6.327,1.201,12.709,1.15,19.087c-0.095,3.913-0.704,7.87,0.202,11.736c9.607-1.013,18.874-4.293,28.043-7.217
		c3.288-1.163,6.662-3.065,10.248-2.508c3.944,1.293,2.904,4.705,0.691,7.146c-2.812,3.98-5.797,8.091-8.981,11.739
		c-2.994,4.105-12.519,13.604-10.305,18.672c6.693,9.511,15.767,17.256,24.408,24.971c5.16,4.461,10.056,9.224,15.692,13.076
		c3.359,2.651,6.299,5.759,9.947,8.046c7.736,6.227,15.459,12.411,23.609,18.093c7.281,4.997,12.926,11.907,19.16,18.08
		c2.537,2.705,5.332,5.274,7.088,8.583c0.76,0.875,1.013,2.204,0.594,3.283C1625.646,1238.537,1623.756,1239.349,1622.16,1238.731z"
		/>
	<path style="fill:#96793B;" d="M1637.373,1238.246c-1.648-0.352-2.839-2.086-2.425-3.752c1.117-4.542,2.487-9.009,3.794-13.489
		c3.127-9.352,5.813-18.947,10.114-27.842c9.756-20.131,21.242-39.451,30.553-59.796c-0.008,0.018-0.015,0.036-0.022,0.054
		c-0.013,0.028-0.025,0.056-0.038,0.085c5.128-9.701-1.748-14.098-7.698-20.734c-4.597-4.462-9.078-9.071-13.237-13.952
		c-2.389-2.491-4.827-6.162-0.704-8.417c0.981-0.524,2.265-0.432,3.344-0.358c4.551,0.466,9.067,1.342,13.557,2.234
		c3.81,0.322,8.453,1.85,11.604-1.034c0.047-5.253-1.65-10.364-2.576-15.497c-0.669-4.715-1.506-9.415-2.086-14.143
		c-0.584-9.307-1.574-18.572-2.481-27.851c-0.669-4.945-1.064-9.931-1.733-14.863c-0.195-2.552-1.356-6.193,2.178-6.899
		c3.805-0.504,3.984,3.763,4.123,6.504c1.248,9.944,2.151,19.862,3.276,29.786c0.505,7.465,0.916,14.667,2.302,21.955
		c0.583,7.708,4.345,15.326,2.974,23.084c-5.199,9.973-18.433,4.667-27.123,3.633c4.759,5.097,9.793,10.016,14.526,15.124
		c3.192,3.335,6.653,6.982,7.648,11.627c0.853,4.05-0.4,8.574-2.045,12.164c-2.416,5.619-5.372,10.983-8.062,16.467
		c-2.865,5.753-5.755,11.508-8.904,17.111c-8.012,14.843-16.278,29.653-21.011,45.934c-2.002,5.683-3.608,11.474-5.306,17.255
		C1641.371,1235.117,1640.755,1238.937,1637.373,1238.246z"/>
	<path style="fill:#96793B;" d="M1572.27,1234.187c0.728,4.893,1.684,13.476-2.783,16.759c-3.579,1.728-7.886,1.068-11.724,2.024
		c-12.872,1.629-25.744,2.16-38.548,2.709c-15.433,1.024-30.86,2.832-46.212,4.227c-7.251,0.037-10.564-6.233-9.651-12.829
		c0.018-4.369-2.308-10.811,3.98-11.805c4.937-0.111,9.762-1.277,14.649-1.858c7.047-0.061,14.1,0.401,21.147-0.099
		c8.633-0.512,17.241-1.425,25.83-2.419c9.805-0.382,19.555-1.185,29.311-2.153
		C1563.65,1228.899,1570.826,1227.066,1572.27,1234.187z"/>
	<path style="fill:#96793B;" d="M1852.033,1390.028c-1.691-0.543-2.499-2.327-2.03-3.98c1.302-4.597,2.598-9.188,3.9-13.779
		c1.711-7.616,5.376-14.614,6.262-22.402c1.109-9.254,2.419-18.353,2.407-27.661c-0.788-16.515-2.158-33.141-6.528-49.069
		c-2.908-15.236-5.146-30.598-8.466-45.752c-1.798-5.893-2.61-11.847-4.245-17.732c-0.543-1.629,0.339-3.456,1.974-4.011
		c3.798-1.102,4.582,3.443,5.171,6.177c0.599,4.186,1.773,8.588,2.765,12.385c3.495,14.785,5.798,29.841,8.38,44.824
		c3.519,13.75,5.844,27.699,6.59,41.813c0.882,9.703,0.921,19.491-0.555,29.141c-1.068,8.03-1.25,16.507-4.754,23.931
		c-2.443,7.985-4.574,16.068-6.891,24.092C1855.545,1389.665,1853.617,1390.547,1852.033,1390.028z"/>
	<path style="fill:#96793B;" d="M1840.121,1189.395c-1.775-10.989-3.499-21.965-6.208-32.76c-1.592-7.169-1.716-14.541-3.332-21.714
		c-1.334-6.961-2.311-13.974-3.875-20.888c-0.058-2.602-2.061-5.356-0.734-7.818c1.552-2.545,5.764-1.416,5.847,1.586
		c2.653,11.617,4.566,23.419,6.532,35.172c0.381,4.697,0.983,9.372,2.085,13.964c2.674,10.255,4.087,20.774,5.881,31.211
		C1847.017,1192.204,1841.026,1193.466,1840.121,1189.395z"/>
	<g>
		<path style="fill:#413419;" d="M1517.119,745.875c-1.95-0.086-4.455,1.203-6.288,2.098c-5.732,3.123-9.065,10.793-6.942,17.05
			c2.147,4.461,7.028,7.072,11.693,8.121c0.697,0.128,1.38,0.189,2.046,0.189c10.287,0,16.526-14.584,9.919-22.57
			C1525.172,747.27,1521.124,746.023,1517.119,745.875z"/>
		<path style="fill:#413419;" d="M1648.195,773.143c0.697,0.128,1.38,0.189,2.045,0.189c10.287,0,16.526-14.584,9.919-22.57
			c-2.376-3.492-6.424-4.739-10.428-4.887c-1.95-0.086-4.455,1.203-6.288,2.098c-5.733,3.123-9.065,10.793-6.942,17.05
			C1638.649,769.484,1643.53,772.094,1648.195,773.143z"/>
		<path style="fill:#413419;" d="M1491.507,721.512c0.161,0.002,0.322,0.003,0.483,0.003c2.461,0,4.922-0.214,7.378-0.422
			c2.993-0.26,5.985-0.519,8.997-0.389c3.221-0.117,6.448-0.08,9.682-0.043c4.677,0.056,9.355,0.111,14.014-0.29
			c14.445-0.444,11.366-14.155-1.58-14.05c-7.146-0.808-14.341-0.753-21.517-0.259c-5.628-0.223-11.601,0.413-17.204,1.728
			c-3.326,1.154-7.714,2.913-8.355,6.806C1483.01,718.976,1487.626,721.549,1491.507,721.512z"/>
	</g>
	<path style="fill:#96793B;" d="M1646.979,1911.912c1.663,0.099,3.308-1.246,3.338-2.968c0.136-8.071,0.271-16.143,0.376-24.208
		c0.003-18.533,0.32-37.133-1.215-55.61c-1.048-18.899-2.446-37.75-3.87-56.622c-0.392-4.165-6.503-3.653-6.3,0.445
		c2.059,29.307,4.727,58.606,5.073,87.994c0.19,15.606-0.045,31.92-0.37,47.631
		C1643.98,1910.295,1645.208,1911.813,1646.979,1911.912z"/>
	<path style="fill:#96793B;" d="M1637.101,1493.644c-0.491-4.434-6.866-3.443-6.286,0.804c0.217,15.805,1.419,31.647,1.72,47.475
		c-0.47,8.911,0.575,17.76,1.01,26.64c-0.383,15.938,0.114,32.024,0.681,47.982c-0.311,18.657-1.59,38.117-0.655,56.893
		c1.443,21.847,3.162,43.663,4.449,65.527c0.407,4.246,6.522,3.551,6.3-0.445c-1.312-25.276-3.932-50.498-4.857-75.788
		c0.366-23.632,1.603-47.806,0.234-71.506c0.345-13.543,0.097-27.609-0.974-41.247
		C1639.141,1531.203,1637.345,1512.497,1637.101,1493.644z"/>
	<path style="fill:#96793B;" d="M1628.991,1268.292c-1.607-8.312-3.619-16.618-6.3-24.64c-1.446-3.93-7.224-1.862-5.98,2.037
		c0.647,1.62,1.238,3.246,1.536,4.974c1.826,6.664,3.716,13.436,4.776,20.328c1.048,8.56,0.101,17.241,2.192,25.7
		c0.508,9.527,2.295,18.896,3.968,28.269c0.551,9.821,1.406,19.53,1.449,29.389c-0.33,8.613-0.335,18.102,0.221,26.902
		c-0.224,8.908-0.426,17.812-0.573,26.721c-0.167,8.756-0.339,17.506-0.506,26.262c-0.031,1.722,1.203,3.234,2.974,3.339
		c1.663,0.093,3.302-1.252,3.338-2.974c0.173-9.028,0.352-18.062,0.518-27.089c0.249-13.621,0.786-27.216,0.019-40.833
		c0.705-13.708-0.172-28.072-1.112-41.916c-1.382-9.152-3.464-17.659-3.85-27.052c-0.628-5.507-1.902-10.319-1.794-16.095
		C1630.031,1277.157,1629.779,1272.687,1628.991,1268.292z"/>
	<path style="fill:#413419;" d="M1653.441,1925.608c0.05,0.004,0.108,0.003,0.159,0.006c0.004,0,0.009,0,0.013,0
		C1653.555,1925.612,1653.5,1925.61,1653.441,1925.608z"/>
	<path style="fill:#96793B;" d="M1751.46,1916.472c-8.08,1.223-16.262,1.96-24.368,3.246c-11.384,1.898-22.925,3.66-34.447,2.491
		c-2.983-2.079-6.545-3.585-9.081-6.188c-0.267-0.58-0.697-1.036-1.208-1.355c-0.44-4.131-0.657-8.291-1.059-12.426
		c-0.708-6.169-0.486-12.371-0.975-18.549c-1.575-12.011-3.205-24.076-3.839-36.185c-1.322-16.192-3.368-32.327-3.979-48.582
		c-0.548-10.767-1.885-21.479-1.191-32.279c-0.305-11.071-1.629-22.101-1.624-33.194c-0.097-9.229,0.154-18.458-0.597-27.784
		c-0.751-14.415-0.163-28.858-0.65-43.413c0.419-10.263,0.922-20.629,0.088-30.907c-0.432-19.019-0.61-38.293-1.5-57.362
		c-0.45-11.818-0.072-23.064-0.327-35.105c-0.13-10.972-0.652-21.926-0.203-32.896c-0.746-21.291,0.471-42.813-0.593-64.187
		c-0.079-8.031,0.599-16.718,0.556-24.843c-0.541-10.506-0.809-22-1.795-32.655c-1.625-18.548-4.474-36.892-6.141-55.474
		c-3.48-21.787-7.089-43.795-14.519-64.625c-2.574-8.422-6.791-16.351-11.651-23.658c-1.939-3.767-4.909-6.943-8.263-9.55
		c-0.806-0.803-1.56-1.652-2.381-2.44c-1.24-1.197-3.388-0.895-4.455,0.352c-1.102,1.226-0.956,3.25,0.244,4.348
		c1.728,1.883,3.624,3.628,5.634,5.243c5.817,7.034,9.946,15.36,13.604,23.707c7.613,21.031,11.629,43.109,15.242,65.135
		c1.977,20.319,4.87,40.507,6.755,60.869c0.486,9.442,0.911,18.898,1.416,28.347c0.1,7.582-0.546,15.904-0.558,23.672
		c0.27,12.902,0.896,25.205,0.308,38.233c-0.281,12.188,0.548,23.933,0.081,36.296c0.589,27.538,0.241,55.184,1.586,82.792
		c0.708,12.736-0.084,25.501,0.907,38.221c0.433,8.135,0.104,16.305-0.333,24.467c-0.057,8.896,0.491,17.389,0.16,26.386
		c-0.065,9.637,0.546,19.263,0.992,28.879c-0.017,10.49,0.033,21.002,0.538,31.482c0.326,6.455,1.051,12.898,1.171,19.365
		c-0.172,7.359-0.451,14.722,0.489,22.053c1.206,13.439,1.154,26.991,2.918,40.387c1.433,11.786,1.742,23.667,3.197,35.45
		c0.684,8.881,2.57,17.653,2.734,26.559c0.022,6.708,0.904,14.349,1.443,21.282c0.335,2.038,0.123,4.359,0.645,6.399
		c-0.002,0.041-0.01,0.081-0.011,0.122c-1.046,2.918-3.701,4.849-6.361,6.22c-2.628,0.901-5.367,1.193-8.137,1.31
		c-2.225-1.07-5.945-0.375-8.322-0.514c-26.493,1.133-53.034,0.609-79.51,1.981c-14.107-0.808-28.207-0.456-42.317,0.117
		c-24.373,0.415-48.747,2.194-73.104,0.839c-16.482-1.749-33.987-2.894-50.007-7.762c-5.276-1.42-10.558-2.814-15.846-4.203
		c-1.666-0.444-3.406,0.765-3.77,2.394c-0.382,1.728,0.734,3.332,2.401,3.77c5.881,1.549,11.774,3.048,17.623,4.702
		c10.842,3.498,22.257,4.311,33.507,5.702c9.585,1.619,19.282,1.728,28.959,2.314c25.878-0.181,51.756-1.285,77.627-1.999
		c8.592-0.375,17.165,0.217,25.756,0.45c14.411-1.05,28.845-0.662,43.269-1.209c10.895,0.377,21.748-0.591,32.612-0.74
		c0.592,0.517,1.366,0.825,2.192,0.788c2.98-0.13,5.961-0.253,8.941-0.383c3.576-0.163,6.416,0.066,9.731-1.413
		c3.537-1.479,6.919-3.808,9.065-7.034c0.28-0.372,0.555-0.819,0.811-1.305c1.581,1.081,3.262,2.006,4.357,2.802
		c2.512,1.224,5.172,4.466,8.159,3.039c0.242,0.026,0.483,0.058,0.726,0.09c1.267,0.19,2.515,0.35,3.802,0.389
		c20.487,0.012,40.835-5.845,61.361-6.763c1.722-0.019,3.098-1.611,3.03-3.29C1762.375,1913.801,1754.904,1916.503,1751.46,1916.472
		z"/>
	<path style="fill:#96793B;" d="M1860.271,1902.898c-5.741,2.623-12.042,3.209-18.072,4.882c-10.635,2.17-21.361,3.654-32.107,5.145
		c-11.028,0.944-22.18,1.523-33.229,2.512c-2.87,0.357-6.036-0.018-8.663,1.369c-2.156,1.231-1.861,4.546,0.315,5.579
		c0.992,0.604,2.247,0.459,3.193-0.155c10.38-0.962,20.778-1.739,31.184-2.382c19.506-1.799,39.166-4.656,57.937-10.341
		c2.342-0.63,4.781-2.323,3.628-5.036C1863.733,1902.873,1861.851,1902.225,1860.271,1902.898z"/>
	<path style="fill:#96793B;" d="M1472.613,1767.487c5.897,0.682,11.779-0.141,17.679-0.235c7.27-0.231,14.519,0.268,21.795,0.463
		c5.961,0.015,11.796-0.756,17.74-1.116c5.542,0.336,10.979,0.791,16.538,0.795c9.984-0.202,20.415,0.355,30.631,0.031
		c6.097-0.149,12.651,0.634,12.985-7.439c0.943-6.666,4.229-18.074-4.544-20.583c-4.455-0.803-9.041,0.058-13.551-0.135
		c-10.34-0.034-20.279-0.226-30.816,0.21c-4.238,0.31-7.943,0.666-12.297,0.114c-5.484-1.816-11.596-0.883-17.304-0.793
		c-7.359,0.771-14.734-0.588-22.128,0.026c-3.57-0.042-7.118,0.444-10.687,0.209c-4.332-0.272-10.225-1.656-13.52,2.358
		c-3.483,3.82-3.188,9.208-3.635,14.02C1460.957,1761.688,1466.548,1767.08,1472.613,1767.487z M1467.947,1754.516
		c0.396-3.145-0.439-8.363,3.285-9.617c10.326,1.069,20.688-0.409,31.03,0.366c4.722,0.549,9.405-0.373,14.125-0.345
		c4.933-0.311,9.71,0.792,14.588,1.204c11.706-0.088,22.959-0.977,34.796-0.543c3.904-0.066,7.819,0.073,11.724-0.05
		c2.308,0.119,4.96-0.668,7.087,0.337c1.095,4.948-0.467,10.076-1.103,15c-11.718,0.774-23.227-0.049-35.029,0.262
		c-6.152,0.05-12.939-0.609-19.197-0.84c-14.717,1.961-29.474,0.081-44.231,0.839
		C1479.443,1761.238,1466.569,1763.711,1467.947,1754.516z"/>
	<path style="fill:#96793B;" d="M1762.093,1752.971c11.47,3.146,23.285-1.708,34.709-3.042c8.527-0.366,16.937-1.464,25.273-3.296
		c3.248-0.553,12.963-0.64,14.097-4.028c0.543-1.58-0.315-3.518-1.963-4.011c-1.004-0.333-2.116-0.35-3.063,0.149
		c-4.663,1.664-9.776,1.168-14.542,2.523c-8.161,2.091-16.692,1.599-25.016,3.06c-6.655,0.754-29.966,8.464-30.656-1.974
		c-0.368-1.434-0.468-3.609-0.443-5.195c0.08-1.283,0.131-3.248,1.442-3.851c11.903-2.392,23.869-3.693,36.019-4.567
		c8.132-0.704,16.08-2.685,24.183-3.659c1.967-0.251,3.987-0.564,6.007-0.678c1.085,0.256,2.272-0.053,3.07-0.939
		c1.141-1.265,1.074-3.326-0.222-4.461c-2.46-1.9-5.839-0.385-8.664-0.297c-4.972,0.633-9.926,1.414-14.859,2.296
		c-8.589,1.755-17.479,1.774-26.182,3c-4.093,0.162-8.072,0.978-12.08,1.7c-4.215,0.735-9.372,0.445-12.565,3.704
		c-3.405,4.417-2.788,10.662-1.475,15.76C1755.885,1748.824,1758.677,1751.633,1762.093,1752.971z"/>
	<path style="fill:#E08057;" d="M1841.099,1577.364c6.414,3.762,12.724,7.264,19.709,9.917c3.968,1.201,5.868-4.627,1.956-6.01
		c-6.134-2.371-12.145-5.678-17.858-8.997c-4.227-2.414-8.478-4.746-12.143-7.982c-3.218-2.582-7.118,2.056-4.079,4.828
		C1832.457,1572.402,1836.736,1574.933,1841.099,1577.364z"/>
	<path style="fill:#E08057;" d="M1600.481,817.482c-1.314,3.011-6.701,6.331-3.369,9.663c0.729,0.527,1.402,0.751,2.028,0.751
		c2.723,0,4.552-4.243,6.198-6.249c2.333-4.017,3.53-8.738,3.888-13.354c0.685-6.356-3.178-11.7-5.671-17.204
		c-2.382-5.196-3.418-11.181-4.301-16.92c-0.839-6.634,0.043-13.384,0.111-20.049c0.062-1.721-1.321-3.209-3.042-3.27
		c-1.722-0.062-3.215,1.327-3.27,3.048c-1.006,14.841-0.679,30.218,6.639,43.694C1603.974,803.69,1603.511,810.953,1600.481,817.482
		z"/>
	<path style="fill:#E08057;" d="M1240.232,1354.65c-1.866,0.816-2.291,3.002-2.207,4.851c0.114,2.365-0.09,4.751-0.155,7.123
		c-0.502,15.609,0.657,31.324,0.656,46.972c0.13,8.752-5.085,17.226-2.359,25.935c0.487,2.481,2.143,5.092,4.982,4.903
		c8.312-1.074,5.768-10.626,4.66-16.366c-0.378-3.197-0.411-6.388-0.212-9.591c0.213-2.109,1.464-4.79-0.506-6.406
		c-0.13-13.624-0.948-27.205-0.816-40.833c0.074-4.079,0.335-8.166,0.264-12.248c0.547-1.228,0.24-2.684-0.734-3.707
		C1242.917,1354.348,1241.389,1354.147,1240.232,1354.65z"/>
</g>
</svg>
