<svg xmlns="http://www.w3.org/2000/svg" viewBox="0 0 500 500"><g id="freepik--Blackboard--inject-116"><rect x="49.71" y="32.79" width="400.79" height="230.08" style="fill:#263238"></rect><path d="M451.26,263.62H49V32H451.26ZM50.48,262.11H449.74V33.54H50.48Z" style="fill:#263238"></path><rect x="58.62" y="39.21" width="385.32" height="215.76" style="fill:#455a64"></rect><path d="M444.7,255.72H57.87V38.45H444.7ZM59.38,254.21H443.19V40H59.38Z" style="fill:#263238"></path><rect x="42.09" y="252.52" width="415.82" height="10.34" style="fill:#263238"></rect><path d="M458.67,263.62H41.33V251.77H458.67ZM42.84,262.11H457.16v-8.83H42.84Z" style="fill:#263238"></path><path d="M154,79.84c0,.22-13.39.4-29.89.4s-29.89-.18-29.89-.4,13.38-.39,29.89-.39S154,79.63,154,79.84Z" style="fill:#fff"></path><path d="M154,86.09c0,.22-13.39.39-29.89.39s-29.89-.17-29.89-.39,13.38-.39,29.89-.39S154,85.87,154,86.09Z" style="fill:#fff"></path><path d="M114.09,68.74c0,.21-4.45.39-10,.39s-10-.18-10-.39,4.46-.4,10-.4S114.09,68.52,114.09,68.74Z" style="fill:#fff"></path><path d="M229,178.58c0,.14-31.58.26-70.51.26S88,178.72,88,178.58s31.57-.26,70.52-.26S229,178.43,229,178.58Z" style="fill:#fff"></path><path d="M144.87,239.22c-.14,0-.26-30-.26-67.05s.12-67.07.26-67.07.26,30,.26,67.07S145,239.22,144.87,239.22Z" style="fill:#fff"></path><path d="M193.49,114.5a8.6,8.6,0,0,1-.63,1.86c-.51,1.19-1.28,2.92-2.34,5.11-2.12,4.4-5.3,10.7-9.34,18.42s-8.92,16.89-14.53,27q-2.1,3.78-4.37,7.7c-.77,1.3-1.53,2.63-2.35,3.95l-1.25,2-.73,1-.37.51-.42.44a18.6,18.6,0,0,1-8.41,5.13,13.45,13.45,0,0,1-5.14.41,12.81,12.81,0,0,1-5-1.68,27.68,27.68,0,0,1-7.32-6.92,83.63,83.63,0,0,1-5.59-7.86,123.32,123.32,0,0,1-8.43-16.1c-2.34-5.29-4.32-10.4-6.15-15.19s-3.47-9.28-4.92-13.39c-2.91-8.22-5-15-6.37-19.65-.66-2.35-1.15-4.18-1.45-5.43A9.18,9.18,0,0,1,98,99.83a8.41,8.41,0,0,1,.69,1.84c.4,1.24,1,3,1.74,5.33,1.52,4.62,3.78,11.29,6.81,19.45,1.52,4.09,3.22,8.54,5.1,13.3s3.9,9.84,6.26,15.07a124.87,124.87,0,0,0,8.4,15.87,83.54,83.54,0,0,0,5.51,7.7,26.33,26.33,0,0,0,6.9,6.55,11.31,11.31,0,0,0,8.9,1.12,17,17,0,0,0,7.72-4.69l.39-.41.32-.44.65-.88,1.23-1.94c.8-1.3,1.57-2.61,2.34-3.9q2.28-3.9,4.41-7.66c5.67-10,10.64-19.12,14.81-26.77s7.49-13.86,9.76-18.17c1.12-2.14,2-3.81,2.6-5A10.42,10.42,0,0,1,193.49,114.5Z" style="fill:#fff"></path><path d="M144.49,165.58a7.66,7.66,0,0,1-2.81.26,7.63,7.63,0,0,1-2.8-.26,15.26,15.26,0,0,1,5.61,0Z" style="fill:#fff"></path><path d="M144.49,151.15a7.66,7.66,0,0,1-2.81.26,7.63,7.63,0,0,1-2.8-.26,15.26,15.26,0,0,1,5.61,0Z" style="fill:#fff"></path><path d="M144.49,136.73a15.26,15.26,0,0,1-5.61,0,14.71,14.71,0,0,1,5.61,0Z" style="fill:#fff"></path><path d="M144.49,122.3a15.26,15.26,0,0,1-5.61,0,7.63,7.63,0,0,1,2.8-.26A7.66,7.66,0,0,1,144.49,122.3Z" style="fill:#fff"></path><path d="M144.49,216.78a15.26,15.26,0,0,1-5.61,0,7.63,7.63,0,0,1,2.8-.26A7.66,7.66,0,0,1,144.49,216.78Z" style="fill:#fff"></path><path d="M144.49,202.35a15.26,15.26,0,0,1-5.61,0,7.63,7.63,0,0,1,2.8-.26A7.66,7.66,0,0,1,144.49,202.35Z" style="fill:#fff"></path><path d="M144.49,187.92a15.26,15.26,0,0,1-5.61,0,7.63,7.63,0,0,1,2.8-.26A7.66,7.66,0,0,1,144.49,187.92Z" style="fill:#fff"></path><path d="M134.78,179.85a15.26,15.26,0,0,1,0,5.61,15.26,15.26,0,0,1,0-5.61Z" style="fill:#fff"></path><path d="M120.35,179.85a15.26,15.26,0,0,1,0,5.61,15.26,15.26,0,0,1,0-5.61Z" style="fill:#fff"></path><path d="M105.92,179.85a15.26,15.26,0,0,1,0,5.61,15.26,15.26,0,0,1,0-5.61Z" style="fill:#fff"></path><path d="M91.49,179.85a15.26,15.26,0,0,1,0,5.61,15.26,15.26,0,0,1,0-5.61Z" style="fill:#fff"></path><path d="M200.4,179.85a15.26,15.26,0,0,1,0,5.61,15.26,15.26,0,0,1,0-5.61Z" style="fill:#fff"></path><path d="M215.29,179.85a15.26,15.26,0,0,1,0,5.61,15.26,15.26,0,0,1,0-5.61Z" style="fill:#fff"></path><path d="M186,179.85a15.26,15.26,0,0,1,0,5.61,15.26,15.26,0,0,1,0-5.61Z" style="fill:#fff"></path><path d="M171.54,179.85a15.26,15.26,0,0,1,0,5.61,15.26,15.26,0,0,1,0-5.61Z" style="fill:#fff"></path><path d="M157.11,179.85a15.26,15.26,0,0,1,0,5.61,15.26,15.26,0,0,1,0-5.61Z" style="fill:#fff"></path><path d="M149.19,110.78a11.41,11.41,0,0,1-1.42-1.88c-.82-1.2-1.93-2.87-3.13-4.73l0,0,.44,0c-1.05,1.94-2,3.68-2.75,4.92a11.1,11.1,0,0,1-1.27,2,9.6,9.6,0,0,1,1-2.14c.64-1.29,1.57-3.06,2.62-5l.21-.39.23.37,0,0c1.2,1.87,2.26,3.57,3,4.82A10.78,10.78,0,0,1,149.19,110.78Z" style="fill:#fff"></path><path d="M224.3,182.66a10.66,10.66,0,0,1,1.88-1.43c1.2-.82,2.87-1.93,4.73-3.12l.05,0v.45c-1.93-1.06-3.67-2-4.92-2.76a11.22,11.22,0,0,1-2-1.27,10.22,10.22,0,0,1,2.14.95c1.29.64,3.05,1.57,5,2.62l.39.21-.37.24-.05,0c-1.86,1.2-3.56,2.26-4.81,3A10.55,10.55,0,0,1,224.3,182.66Z" style="fill:#fff"></path><path d="M397.36,149.87s0-.09,0-.24,0-.4,0-.69q0-.91,0-2.64c0-2.32,0-5.69-.05-10,0-8.57-.06-20.79-.1-35.43l.2.2-49,0h0l.23-.23c0,17.93,0,34.73,0,49l-.2-.21,35.44.11,10,0,2.64,0h.68l.24,0h-.88l-2.6,0L384,150l-35.57.11h-.2v-.2c0-14.24,0-31,0-49v-.24h.24l49,0h.2v.2c0,14.7-.08,27-.1,35.56,0,4.26,0,7.62,0,9.93,0,1.12,0,2,0,2.6,0,.28,0,.5,0,.66A1.76,1.76,0,0,1,397.36,149.87Z" style="fill:#fff"></path><path d="M397.36,149.87s.12-.1.37-.27l1.13-.72,4.33-2.73,15.95-9.93-.09.15c0-12.78,0-29.71-.05-48.24l.23.24h-.14l-48.26-.06.08,0-16.43,9.26-4.5,2.5-1.18.64-.41.21a3.9,3.9,0,0,1,.39-.25l1.15-.69,4.45-2.58L370.74,88l0,0h.05l48.26-.06h.37v.23c0,18.53,0,35.46,0,48.24v.1l-.08.05-16,9.8L398.91,149l-1.15.68Z" style="fill:#fff"></path><path d="M419.23,88.13c.06.11-4.78,3.06-10.82,6.59s-11,6.29-11.05,6.18,4.78-3.06,10.82-6.59S419.16,88,419.23,88.13Z" style="fill:#fff"></path><path d="M350.71,147.85c.07.12-.4.5-1,.87s-1.22.58-1.28.47.4-.5,1.05-.87S350.65,147.74,350.71,147.85Z" style="fill:#fff"></path><path d="M355.36,145.19c.06.11-.4.5-1.05.87s-1.21.57-1.27.46.4-.5,1-.87S355.3,145.08,355.36,145.19Z" style="fill:#fff"></path><path d="M360,142.52c.06.11-.41.5-1.05.87s-1.21.58-1.28.46.41-.5,1.05-.86S359.94,142.41,360,142.52Z" style="fill:#fff"></path><path d="M364.65,139.85c.07.11-.4.5-1,.87s-1.22.58-1.28.47.4-.5,1.05-.87S364.59,139.74,364.65,139.85Z" style="fill:#fff"></path><path d="M369.3,137.19c.06.11-.4.5-1.05.86s-1.21.58-1.27.47.4-.5,1-.87S369.24,137.07,369.3,137.19Z" style="fill:#fff"></path><path d="M370.48,132.49c.13,0,.22.6.22,1.34s-.12,1.34-.24,1.34-.23-.6-.23-1.34S370.35,132.49,370.48,132.49Z" style="fill:#fff"></path><path d="M370.52,127.13c.13,0,.23.61.22,1.35s-.11,1.33-.24,1.33-.23-.6-.22-1.34S370.39,127.13,370.52,127.13Z" style="fill:#fff"></path><path d="M370.56,121.78c.13,0,.23.6.22,1.34s-.11,1.34-.24,1.34-.23-.61-.22-1.35S370.43,121.78,370.56,121.78Z" style="fill:#fff"></path><path d="M370.6,116.42c.13,0,.23.6.22,1.34s-.11,1.34-.24,1.34-.23-.6-.22-1.34S370.47,116.42,370.6,116.42Z" style="fill:#fff"></path><path d="M370.64,111.06c.13,0,.23.6.23,1.34s-.12,1.34-.25,1.34-.22-.6-.22-1.34S370.52,111.06,370.64,111.06Z" style="fill:#fff"></path><path d="M370.69,105.7c.13,0,.22.61.22,1.35s-.12,1.33-.24,1.33-.23-.6-.23-1.34S370.56,105.7,370.69,105.7Z" style="fill:#fff"></path><path d="M370.73,100.35c.13,0,.23.6.22,1.34s-.11,1.34-.24,1.34-.23-.61-.22-1.35S370.6,100.35,370.73,100.35Z" style="fill:#fff"></path><path d="M370.77,95c.13,0,.23.6.22,1.34s-.11,1.34-.24,1.34-.23-.6-.22-1.34S370.64,95,370.77,95Z" style="fill:#fff"></path><path d="M370.81,89.63c.13,0,.23.6.23,1.34s-.12,1.34-.25,1.34-.23-.6-.22-1.34S370.68,89.63,370.81,89.63Z" style="fill:#fff"></path><path d="M416.55,136.37c0-.13.6-.23,1.34-.23s1.34.1,1.34.23-.6.23-1.34.23S416.55,136.5,416.55,136.37Z" style="fill:#fff"></path><path d="M411.19,136.37c0-.13.6-.23,1.34-.23s1.34.1,1.34.23-.6.23-1.34.23S411.19,136.5,411.19,136.37Z" style="fill:#fff"></path><path d="M405.84,136.37c0-.13.6-.23,1.34-.23s1.33.1,1.33.23-.6.23-1.33.23S405.84,136.5,405.84,136.37Z" style="fill:#fff"></path><path d="M400.48,136.37c0-.13.6-.23,1.34-.23s1.34.1,1.34.23-.6.23-1.34.23S400.48,136.5,400.48,136.37Z" style="fill:#fff"></path><path d="M395.12,136.37c0-.13.6-.23,1.34-.23s1.34.1,1.34.23-.6.23-1.34.23S395.12,136.5,395.12,136.37Z" style="fill:#fff"></path><path d="M389.76,136.37c0-.13.6-.23,1.34-.23s1.34.1,1.34.23-.6.23-1.34.23S389.76,136.5,389.76,136.37Z" style="fill:#fff"></path><path d="M384.41,136.37c0-.13.6-.23,1.33-.23s1.34.1,1.34.23-.6.23-1.34.23S384.41,136.5,384.41,136.37Z" style="fill:#fff"></path><path d="M379.05,136.37c0-.13.6-.23,1.34-.23s1.34.1,1.34.23-.6.23-1.34.23S379.05,136.5,379.05,136.37Z" style="fill:#fff"></path><path d="M373.69,136.37c0-.13.6-.23,1.34-.23s1.34.1,1.34.23-.6.23-1.34.23S373.69,136.5,373.69,136.37Z" style="fill:#fff"></path><path d="M370.44,136.37a.26.26,0,0,1,.29-.23.23.23,0,1,1,0,.46A.26.26,0,0,1,370.44,136.37Z" style="fill:#fff"></path><path d="M425.16,120.06a6.22,6.22,0,0,0,1.22-.06,3.77,3.77,0,0,0,2.54-1.91,5.13,5.13,0,0,0-.14-4.66,1.44,1.44,0,0,0-1-.77,1.66,1.66,0,0,0-1.25.33,5.88,5.88,0,0,0-1.55,2.6,12.09,12.09,0,0,0-.7,3.32h-.45c-.05-3.54-.08-6.64-.08-8.85,0-1,0-1.9,0-2.6a4.32,4.32,0,0,1,.07-.94,4.74,4.74,0,0,1,.09.94c0,.69.07,1.56.12,2.59.07,2.21.16,5.31.23,8.86h-.45a12,12,0,0,1,.71-3.46,10.81,10.81,0,0,1,.67-1.51,3.74,3.74,0,0,1,1.05-1.29,2.11,2.11,0,0,1,1.61-.41,1.87,1.87,0,0,1,1.24,1,5.43,5.43,0,0,1,.06,5,3.92,3.92,0,0,1-2.8,1.93,2.78,2.78,0,0,1-.94,0A.9.9,0,0,1,425.16,120.06Z" style="fill:#fff"></path><path d="M401.42,82.55s0,.06-.11.17a1.74,1.74,0,0,1-.48.35,2,2,0,0,1-.94.2,1.81,1.81,0,0,1-1.2-.5,3.59,3.59,0,0,1-.81-1.37c-.2-.52-.4-1.1-.57-1.71a19.91,19.91,0,0,1-.68-4.23l.44,0a16.28,16.28,0,0,1-.16,5.58,5.12,5.12,0,0,1-1.74,2.85,2.14,2.14,0,0,1-1.63.36,2,2,0,0,1-1.28-1,5.5,5.5,0,0,1,2.65-7.45,4.78,4.78,0,0,1,.89-.31,1.19,1.19,0,0,1,.33,0s-.43.13-1.14.51a5.48,5.48,0,0,0-2.33,2.35,5.41,5.41,0,0,0-.58,2.2,4.57,4.57,0,0,0,.55,2.51,1.58,1.58,0,0,0,1,.77,1.75,1.75,0,0,0,1.29-.31,4.69,4.69,0,0,0,1.54-2.59,16.1,16.1,0,0,0,.17-5.43l.44,0a19.44,19.44,0,0,0,.6,4.14c.15.61.33,1.18.51,1.7a3.59,3.59,0,0,0,.69,1.29,1.76,1.76,0,0,0,1.9.36A4.19,4.19,0,0,0,401.42,82.55Z" style="fill:#fff"></path></g><g id="freepik--Character--inject-116"><path d="M289.32,433.59l4.48,24s-22.84,12.59-22.45,17.1l46.75-7L312.66,430Z" style="fill:#92E3A9"></path><g style="opacity:0.30000000000000004"><path d="M289.32,433.59l4.48,24s-22.84,12.59-22.45,17.1l46.75-7L312.66,430Z"></path></g><path d="M308,453.35a1.93,1.93,0,0,1,1.65,2,1.87,1.87,0,0,1-2,1.65,2,2,0,0,1-1.73-2.11,1.91,1.91,0,0,1,2.21-1.49" style="fill:#e0e0e0"></path><path d="M318.1,467.63l-.69-3.77L272.84,472s-1.94,1.22-1.49,2.65Z" style="fill:#263238"></path><path d="M293,457.41c0,.23,1.19.16,2.43.73s2,1.43,2.17,1.31-.34-1.39-1.85-2.05S292.92,457.21,293,457.41Z" style="fill:#263238"></path><path d="M288.41,460.18c0,.23,1,.47,1.94,1.32s1.3,1.83,1.53,1.79.17-1.36-1-2.39S288.38,460,288.41,460.18Z" style="fill:#263238"></path><path d="M286.5,466.46c.22,0,.36-1.17-.41-2.33s-1.92-1.5-2-1.3.69.78,1.31,1.74S286.27,466.47,286.5,466.46Z" style="fill:#263238"></path><path d="M292.59,451.84c.13.2,1.13-.28,2.43-.38s2.37.15,2.46-.07-1-.88-2.53-.73S292.45,451.68,292.59,451.84Z" style="fill:#263238"></path><path d="M304.59,439.32l.43,24.36s-24.62,8.62-25,13.13l47.27.86.88-38Z" style="fill:#92E3A9"></path><path d="M319.67,461.9a1.93,1.93,0,0,1,1.3,2.22,1.87,1.87,0,0,1-2.2,1.31,2,2,0,0,1-1.36-2.37,1.93,1.93,0,0,1,2.44-1.1" style="fill:#e0e0e0"></path><path d="M327.31,477.67l-.06-3.83-45.3.6s-2.12.88-1.91,2.37Z" style="fill:#263238"></path><path d="M304.26,463.42c0,.23,1.15.36,2.27,1.12s1.71,1.75,1.93,1.66-.11-1.43-1.48-2.33S304.21,463.21,304.26,463.42Z" style="fill:#263238"></path><path d="M299.26,465.38c-.05.23.94.64,1.7,1.63s1,2,1.21,2,.4-1.31-.58-2.52S299.27,465.16,299.26,465.38Z" style="fill:#263238"></path><path d="M296.34,471.26c.21.06.55-1.09,0-2.36s-1.64-1.8-1.74-1.61.55.88,1,1.93S296.11,471.24,296.34,471.26Z" style="fill:#263238"></path><path d="M304.77,457.86c.1.21,1.16-.09,2.46,0s2.32.54,2.44.34-.84-1-2.37-1.15S304.66,457.68,304.77,457.86Z" style="fill:#263238"></path><path d="M337.93,250.17l-.63,24.1-7.12,74.82s2.27,36.45,3.71,57C335.14,424,331.53,455,331.53,455l-30.08-.79-8.06-103.81-5-64.74-9.89-33Z" style="fill:#263238"></path><path d="M263.49,254.38l-1.8,99.12a41.07,41.07,0,0,0,2.4,14.65l25.85,72,1.27,4.75L309.29,441,296.78,251.92l-33.35,1.37Z" style="fill:#263238"></path><path d="M288.8,272.94a2.42,2.42,0,0,0,0,.47c0,.34,0,.79,0,1.38,0,1.24,0,3,0,5.3,0,4.6.13,11.26.35,19.48.48,16.45,1.58,39.17,3.57,64.18s4.23,47.63,5.91,64c.85,8.15,1.54,14.75,2,19.36.24,2.25.44,4,.57,5.26.07.57.13,1,.17,1.36a2.87,2.87,0,0,0,.07.46,2.08,2.08,0,0,0,0-.47c0-.33-.06-.79-.1-1.37-.12-1.24-.27-3-.48-5.27-.44-4.61-1.07-11.22-1.85-19.38-1.57-16.36-3.79-39-5.74-64s-3.15-47.7-3.73-64.14c-.27-8.22-.47-14.88-.53-19.48-.05-2.27-.09-4.05-.12-5.3,0-.58,0-1-.05-1.37A2.84,2.84,0,0,0,288.8,272.94Z" style="fill:#455a64"></path><path d="M287.22,260.18a1.55,1.55,0,1,0,1.59-1.5A1.55,1.55,0,0,0,287.22,260.18Z" style="fill:#455a64"></path><path d="M262.82,271.75a9.86,9.86,0,0,0,2.17-1.93,24.07,24.07,0,0,0,3.94-5.82,23.79,23.79,0,0,0,2.07-6.72,9.51,9.51,0,0,0,.14-2.9c-.09,0-.18,1.1-.53,2.83a28.92,28.92,0,0,1-2.19,6.55,28.46,28.46,0,0,1-3.73,5.8C263.56,270.92,262.75,271.68,262.82,271.75Z" style="fill:#455a64"></path><path d="M315.05,256.35a3.72,3.72,0,0,0,.1,1.11,16.7,16.7,0,0,0,.77,2.93,19.19,19.19,0,0,0,14.67,12.42,17.17,17.17,0,0,0,3,.29,4.08,4.08,0,0,0,1.11-.09c0-.11-1.58-.05-4.05-.59a19.88,19.88,0,0,1-14.37-12.18C315.36,257.9,315.15,256.33,315.05,256.35Z" style="fill:#455a64"></path><path d="M263.43,253.29c.14,0,.1,9.52-.09,21.26s-.46,21.25-.6,21.25-.11-9.52.08-21.26S263.28,253.28,263.43,253.29Z" style="fill:#455a64"></path><path d="M337.16,272a24.47,24.47,0,0,1,.07-3.3c.1-2,.22-4.86.29-8s.07-5.92.07-8a22.28,22.28,0,0,1,.08-3.31,20.81,20.81,0,0,1,.29,3.3c.09,2,.15,4.87.08,8s-.25,5.94-.44,8A17.57,17.57,0,0,1,337.16,272Z" style="fill:#455a64"></path><path d="M196,120.25l-2-2.63s-1-2.15-.55-3.12,2-.4,2-.4l7.82,8.81-2.73,2.25-4.23-4.6" style="fill:#fff"></path><path d="M239.7,154.17l-15.79-12.85s-.92-2.4-2.42-3a5.88,5.88,0,0,1-3-4.29l-2.42-8.36c-.06-.89-2.21-5.65-3-6.1l-2.15-.4s-.71-3.59-2.35-4-6.71-.22-6.71-.22L197,117.31a4.2,4.2,0,0,0,3.37,2.07,21.63,21.63,0,0,0,4.36-.56l1.28,3.9s.37,2.9-.12,4.1a4,4,0,0,1-1.18,1.7,57.77,57.77,0,0,1-3.44-5c-1-1.82-3.81-4.08-4.89-3s1.12,3.26,1.42,5.28l.34,2.6s1.85,3.21,2,3.77,1.47,4,2.87,5.17l6.24,5.35,5.89,7c1.76,2.05,18.21,20.41,18.21,20.41l8.21-11.7Z" style="fill:#ffbe9d"></path><path d="M224.48,140.55c.18.63,4.86,4.73,4.86,4.73s11.82,9.05,14.44,12.21,13.27,8.86,13.27,8.86l10.2-20.49L283,135.81c3.52-3.53,13.52,3,13.52,3l-29.25,68.51-21.62-8.08-28.26-40.42-4.58-11Z" style="fill:#e0e0e0"></path><path d="M313.81,117.27l4.16,5.89s26.4,13.32,27.52,15.11-6.94,64.81-6.94,64.81l3.23,38.29-3.85,10.3-74.85,4.2c-1.17-.46-4-3-4.25-7.34-.16-3.34,2.51-6.8,2.49-9-.18-15.52,1.49-51.16,4-64.31,3.35-17.46,11-34.7,11-34.7l6.71-4.7,1.34-7.48Z" style="fill:#e0e0e0"></path><g style="opacity:0.30000000000000004"><path d="M340.05,232.29a8,8,0,0,0-3.57-1.17c-13.91-2.42-25.44-12.34-39.09-16a17.36,17.36,0,0,0-8.66-.51c-4.6,1.16-8,5.3-9.5,9.78s-1.88,9.84-1.88,14.44c3.84-.34,7.8-3.56,9.55-7,.71-1.4,1.2-3,2.51-3.92s3-.73,4.58-.54l10.58,1.29a41.13,41.13,0,0,1,7.8,1.47c2.73.89,5.23,2.34,7.87,3.48a36.39,36.39,0,0,0,18.32,2.75,3.23,3.23,0,0,0,2.1-.78C341.52,234.68,341.05,233.07,340.05,232.29Z"></path></g><g style="opacity:0.30000000000000004"><path d="M288.78,145.49c-1.31,4-1.61,8.29-1.9,12.51-1,14.12-1.41,27.05-2.38,41.17.18-.39-.18.4,0,0l4.69-.61a269.21,269.21,0,0,1,7.06-63C292.56,137.66,290.1,141.47,288.78,145.49Z"></path></g><path d="M285.07,143.8s-7.23,15.57-9.35,22.16-3.58,32-3.58,32l-1.33,32.62,6.54,8.23,6.34-5.45,7.68-88.83Z" style="fill:#92E3A9"></path><path d="M283.69,233.41c-.14,0,1-19.88,2.62-44.39s3-44.37,3.14-44.37-1,19.89-2.62,44.4S283.83,233.42,283.69,233.41Z" style="fill:#263238"></path><path d="M345.49,138.27a22.73,22.73,0,0,1,9.73,13.82c2.57,9.89,11.06,48.43,11.86,54.35s-.6,14-3.17,16.21-18.18,12.12-25.1,12.12S318,230.26,318,230.26L321,214.75,332.69,212l9.09-8.9L331.5,180.55S335.57,140.26,345.49,138.27Z" style="fill:#e0e0e0"></path><path d="M358.72,207.12c-.07.06-.69-.82-2-1.94a14.23,14.23,0,0,0-5.82-3,12.25,12.25,0,0,0-6.52.21c-1.63.48-2.58,1-2.62.91s.2-.19.62-.43a13.16,13.16,0,0,1,1.89-.83,11.76,11.76,0,0,1,6.76-.37,13.24,13.24,0,0,1,5.94,3.27,11.17,11.17,0,0,1,1.36,1.55C358.62,206.86,358.75,207.1,358.72,207.12Z" style="fill:#263238"></path><path d="M331.62,232.83c-.08-.06.74-1,1.65-2.69a15.72,15.72,0,0,0,.11-14.55c-.88-1.73-1.69-2.66-1.61-2.71s.25.18.6.6a13.34,13.34,0,0,1,1.33,1.94,15,15,0,0,1-.11,14.9,12.07,12.07,0,0,1-1.36,1.91C331.87,232.65,331.64,232.85,331.62,232.83Z" style="fill:#263238"></path><polygon points="288.99 131.84 283.15 139.44 284.94 144.12 291.19 144.86 296.72 136.06 291.37 131.38 288.99 131.84" style="fill:#92E3A9"></polygon><path d="M355.44,195.57c0,.1-.94,0-2.42.1a12.54,12.54,0,0,0-2.54.48,15.2,15.2,0,0,0-2.9,1.25,15.89,15.89,0,0,0-4.34,3.76c-.93,1.15-1.38,2-1.46,1.92a6.89,6.89,0,0,1,1.17-2.15,14.11,14.11,0,0,1,4.37-4,13.47,13.47,0,0,1,3-1.26,11.62,11.62,0,0,1,2.65-.39,8.17,8.17,0,0,1,1.8.11A1.9,1.9,0,0,1,355.44,195.57Z" style="fill:#263238"></path><path d="M342.79,139.61c0,.09-.94.43-2.36,1.26a16.86,16.86,0,0,0-7.61,9.92c-.44,1.59-.51,2.62-.61,2.61a2.19,2.19,0,0,1,0-.73,10,10,0,0,1,.27-2,15.41,15.41,0,0,1,7.79-10.15,10.66,10.66,0,0,1,1.83-.78A2.31,2.31,0,0,1,342.79,139.61Z" style="fill:#263238"></path><path d="M316.89,124.3a9.61,9.61,0,0,1-.85,1.32l-2.49,3.48c-2.11,2.93-5.06,7-8.35,11.37l-1.07,1.44-.16.22-.22-.18c-3.92-3.25-7.39-6.17-9.88-8.29L291,131.15a7.53,7.53,0,0,1-1-1,7.16,7.16,0,0,1,1.14.82l3,2.39c2.54,2.05,6.06,4.92,10,8.17l-.38,0,1.07-1.44c3.29-4.42,6.29-8.41,8.48-11.28l2.62-3.38A9,9,0,0,1,316.89,124.3Z" style="fill:#263238"></path><path d="M326.23,168.86a3.42,3.42,0,0,1,.26.45l.65,1.31,2.3,4.87c1.93,4.12,4.55,9.83,7.42,16.15,1.87,4.15,3.63,8,5.12,11.35l.07.14-.11.11c-2.61,2.79-5,4.87-6.6,6.41l-1.85,1.79a4.41,4.41,0,0,1-.68.62,5.78,5.78,0,0,1,.57-.71c.4-.45,1-1.09,1.77-1.89,1.54-1.6,3.91-3.73,6.46-6.53l0,.25-5.18-11.32c-2.87-6.32-5.45-12.06-7.28-16.22L327,170.7l-.56-1.35A1.72,1.72,0,0,1,326.23,168.86Z" style="fill:#263238"></path><path d="M364.57,221.92a2.43,2.43,0,0,1-.41.52,3.7,3.7,0,0,1-.56.58c-.24.21-.5.48-.83.72a46.12,46.12,0,0,1-5.87,3.84c-2.57,1.47-5.69,3.1-9.21,4.8A23.46,23.46,0,0,1,335.3,235a16.53,16.53,0,0,1-5.19-1.21h.05l-12.38-3.39-.2-.05,0-.2c.86-4.25,1.58-7.8,2.1-10.35.26-1.2.46-2.16.62-2.88a7.21,7.21,0,0,1,.26-1,6,6,0,0,1-.13,1c-.13.73-.3,1.7-.5,2.91-.48,2.56-1.14,6.11-1.92,10.38l-.16-.25,12.4,3.32h0a16,16,0,0,0,5,1.16A23.28,23.28,0,0,0,347.48,232c3.53-1.67,6.66-3.27,9.24-4.7a52.26,52.26,0,0,0,5.92-3.67A22,22,0,0,0,364.57,221.92Z" style="fill:#263238"></path><path d="M269.88,152.48a1.38,1.38,0,0,1-.06.47c-.07.36-.16.79-.26,1.3-.26,1.22-.6,2.84-1,4.8-.84,4-2,9.65-2.89,15.89s-1.53,11.93-1.84,16.05c-.16,2.06-.28,3.73-.34,4.88,0,.53-.07,1-.1,1.33a1.62,1.62,0,0,1-.07.47,1.43,1.43,0,0,1,0-.47v-1.33c0-1.16.06-2.84.18-4.91.22-4.13.74-9.84,1.69-16.1S267.25,163,268.18,159c.47-2,.88-3.64,1.18-4.76l.36-1.29A1.71,1.71,0,0,1,269.88,152.48Z" style="fill:#263238"></path><path d="M289.94,130.18a15.66,15.66,0,0,1-1.48,2.38c-1,1.44-2.33,3.4-3.86,5.55l-2.37,3.27-.63.86.21-1c.31-1.61.59-3,.8-3.91a6,6,0,0,1,.41-1.48,5.65,5.65,0,0,1-.13,1.53c-.13,1-.35,2.33-.62,3.94l-.42-.18c.71-1,1.5-2.12,2.32-3.3,1.54-2.14,2.95-4.07,4-5.45A14.54,14.54,0,0,1,289.94,130.18Z" style="fill:#263238"></path><path d="M293.59,133.41c.07.11-2.19,1.84-4.59,4.41s-4.53,4.54-4.64,4.41a7.75,7.75,0,0,1,1.19-1.45c.78-.85,1.84-2,3.07-3.32a29,29,0,0,1,3.37-3.05A5.46,5.46,0,0,1,293.59,133.41Z" style="fill:#263238"></path><path d="M254.43,183.77a11.23,11.23,0,0,1-.16-2.61,46,46,0,0,1,.47-6.3,46.49,46.49,0,0,1,1.31-6.17,10.21,10.21,0,0,1,.89-2.47,18.22,18.22,0,0,1-.53,2.56c-.36,1.56-.81,3.73-1.16,6.16s-.52,4.63-.61,6.23A15,15,0,0,1,254.43,183.77Z" style="fill:#263238"></path><path d="M257,180a32.24,32.24,0,0,1-.33-6.84,31.73,31.73,0,0,1,.61-6.82c.15,0,0,3.06-.09,6.83S257.19,180,257,180Z" style="fill:#263238"></path><path d="M231.34,146.73a15.28,15.28,0,0,1-1.94,1.89c-1.38,1.24-3,2.72-4.85,4.37s-3.66,3.19-5,4.25a12.42,12.42,0,0,1-2.18,1.61,15.23,15.23,0,0,1,1.94-1.89l4.85-4.36c1.91-1.7,3.66-3.2,5-4.26A13.39,13.39,0,0,1,231.34,146.73Z" style="fill:#263238"></path><path d="M256.82,198c-.59.35-4.91,2.77-5.12,5h0l43.88,7.69,41.34-14.06-8.32-7s-35.26,2.94-34.66,12.78c0,0-1.4-3.16-7.84-4.45S256.82,198,256.82,198Z" style="fill:#fff"></path><path d="M250.85,202.92l.1.6,6.42,15.56H311l21.65-7.1,5.67-16.38L300,203.08s-1,4.78-5.36,5c-3.76.22-4.76-4.45-4.76-4.45Z" style="fill:#92E3A9"></path><path d="M250.85,202.92h.67l2,0,7.79.1,28.51.43H290l0,.16a7.18,7.18,0,0,0,1.54,3,3.71,3.71,0,0,0,3.12,1.25,5,5,0,0,0,3.24-1.52,7.4,7.4,0,0,0,1.79-3.33l0-.15.14,0,38.4-7.52.44-.08-.14.42c-.95,2.73-1.95,5.62-3,8.55-.92,2.64-1.82,5.25-2.72,7.83l0,.13-.12,0-21.65,7.08,0,0h0l-53.67-.11h-.1l0-.09c-3.74-9.16-6-14.69-6.29-15.6h0c-.08-.56-.08-.61-.08-.61s0,.07.12.6h0c.42.87,2.73,6.37,6.54,15.5l-.13-.09,53.67-.1H311l21.64-7.11-.16.16c.89-2.58,1.8-5.19,2.71-7.83l3-8.55.29.34L300,203.31l.18-.18a7.8,7.8,0,0,1-1.92,3.55,5.45,5.45,0,0,1-3.53,1.64,4,4,0,0,1-1.92-.29,4.41,4.41,0,0,1-1.55-1.11,7.58,7.58,0,0,1-1.62-3.21l.2.16-28.37-.66-7.84-.2-2.06-.06Z" style="fill:#263238"></path><path d="M290.93,215.12a26.9,26.9,0,0,1-1.15-5.89,27.17,27.17,0,0,1-.33-6,47.46,47.46,0,0,1,.85,5.93A48.67,48.67,0,0,1,290.93,215.12Z" style="fill:#263238"></path><path d="M300.33,215.26c-.15,0-.15-2.7-.3-6a59.38,59.38,0,0,1-.22-6,38,38,0,0,1,.52,12Z" style="fill:#263238"></path><g style="opacity:0.30000000000000004"><path d="M284.63,217.47a9.08,9.08,0,0,1-3-2.62,1.75,1.75,0,0,1,.74-2.5,2.47,2.47,0,0,1,1.61.26c1.39.56,2.76,1.18,4.11,1.83-.71-1-1.42-2.37-.67-3.34s2.23-.63,3.35-.19c2.56,1,5.06,2.15,7.68,2.94a17.58,17.58,0,0,0,8.13.73,5.8,5.8,0,0,0,2.85-1.2,15.89,15.89,0,0,0,1.71-2.19,7.88,7.88,0,0,1,4.36-2.81,1.63,1.63,0,0,1,1.32.09c.64.45.46,1.42.33,2.19a7.92,7.92,0,0,0,2.16,6.9l-6.44,1.66Z"></path></g><path d="M320.79,216.73a6,6,0,0,0-1.36-2.95c-1.08-1.08-1.74-1.36-1.88-2.21s.89-1.64.89-2.53-1.54-1.83-3.42-.89a5.87,5.87,0,0,0-2.72,4.1c-.14.87.66,2.42,0,3.26s-4.11.38-4.11.38L297,215.12s-6.94-6.41-11.25-4.11l2.81,3.42s-5-3-7.17-1.45l-.33.7,12.65,8.58,7.7,2.78,17.89,2.13s3.14-1.77,3.14-4.82A11.12,11.12,0,0,0,321,217" style="fill:#ffbe9d"></path><path d="M303.3,221.33a15.88,15.88,0,0,1-3.11-.21,28.3,28.3,0,0,1-3.34-.59,9.12,9.12,0,0,1-1.92-.66,13,13,0,0,1-1.85-1.16,36.42,36.42,0,0,1-5.44-5.2,12.92,12.92,0,0,1-1.86-2.5,30.67,30.67,0,0,1,2.13,2.25,45.26,45.26,0,0,0,5.48,5,14.45,14.45,0,0,0,1.76,1.13,10.72,10.72,0,0,0,1.82.65c1.21.33,2.34.52,3.28.69A22.77,22.77,0,0,1,303.3,221.33Z" style="fill:#263238"></path><path d="M291.75,144.55a20.92,20.92,0,0,1-6.56-.58,20.92,20.92,0,0,1,6.56.58Z" style="fill:#263238"></path><path d="M335.43,82.92a3,3,0,1,0-1.69-5.43,3.4,3.4,0,0,0,.14-4.58A6,6,0,0,0,329.34,71a10,10,0,0,0-10.23,9.09l.07-.52c-1.87,2.63-2.83,4.29-2.54,7.5.1,1.13.59,2.48,1.72,2.6a5.39,5.39,0,0,1,1.14,0,1.91,1.91,0,0,1,.79.65c1.57,1.89,3.4,3.78,5.8,4.29s5.36-1.06,5.38-3.51a2.85,2.85,0,0,0,3.9.59A5.59,5.59,0,0,0,337.51,88C337.9,86,337.38,83.45,335.43,82.92Z" style="fill:#e0e0e0"></path><path d="M318,97.33a16,16,0,0,1,.73-3.91,7.85,7.85,0,0,0,.23-3.93A3.24,3.24,0,0,0,316.23,87l-7.4,26.78c3.34-.68,10.68-6.62,10.46-10C319.15,101.55,318,99.51,318,97.33Z" style="fill:#e0e0e0"></path><path d="M313.3,117.48l-.23-32.83c.57-12-5.95-22.38-18-22.62l-1.11,0a21.53,21.53,0,0,0-20.69,20.6c-.44,10.43-.79,22-.51,27.53.59,11.54,12.21,12.89,12.21,12.89l0,5.07,4.93,1.79Z" style="fill:#ffbe9d"></path><path d="M285,123.09a26.89,26.89,0,0,0,14.89-4.86s-3.24,8.45-14.8,7.85Z" style="fill:#eb996e"></path><path d="M276.2,91.51a1.64,1.64,0,0,0,1.65,1.6,1.57,1.57,0,0,0,1.64-1.55,1.64,1.64,0,0,0-1.65-1.6A1.57,1.57,0,0,0,276.2,91.51Z" style="fill:#263238"></path><path d="M275.59,86.69c.21.2,1.43-.77,3.2-.83s3.11.77,3.3.55-.14-.48-.72-.87a4.5,4.5,0,0,0-2.65-.71,4.3,4.3,0,0,0-2.53.93C275.66,86.2,275.49,86.59,275.59,86.69Z" style="fill:#263238"></path><path d="M292.41,92a1.65,1.65,0,0,0,1.65,1.6A1.57,1.57,0,0,0,295.7,92a1.65,1.65,0,0,0-1.65-1.61A1.57,1.57,0,0,0,292.41,92Z" style="fill:#263238"></path><path d="M293.45,86.45c.18.23,1.5-.6,3.27-.47s3,1.1,3.21.9-.08-.49-.61-.94a4.54,4.54,0,0,0-2.56-1,4.41,4.41,0,0,0-2.62.64C293.57,86,293.35,86.35,293.45,86.45Z" style="fill:#263238"></path><path d="M287.5,101.3a11.9,11.9,0,0,0-2.9-.41c-.46,0-.89-.11-1-.41a2.32,2.32,0,0,1,.25-1.36c.39-1.11.79-2.27,1.21-3.5,1.67-5,2.86-9.07,2.66-9.14s-1.72,3.92-3.39,8.91c-.4,1.23-.78,2.4-1.15,3.52a2.66,2.66,0,0,0-.17,1.78,1.16,1.16,0,0,0,.77.64,3.27,3.27,0,0,0,.78.08A12,12,0,0,0,287.5,101.3Z" style="fill:#263238"></path><path d="M292.83,79.92c.2.47,2,.17,4.05.35s3.8.67,4.06.23c.11-.22-.2-.66-.89-1.1a6.82,6.82,0,0,0-3-.93,6.71,6.71,0,0,0-3.14.49C293.12,79.3,292.75,79.69,292.83,79.92Z" style="fill:#e0e0e0"></path><path d="M275.84,82.9c.33.39,1.54-.07,3-.15s2.72.17,3-.27c.12-.21-.09-.6-.65-1a4.34,4.34,0,0,0-4.83.33C275.85,82.29,275.7,82.71,275.84,82.9Z" style="fill:#e0e0e0"></path><path d="M292.77,102.32c-.29,0-.22,1.92-1.82,3.35s-3.65,1.3-3.66,1.57.48.36,1.34.35a4.82,4.82,0,0,0,3.06-1.2,4.18,4.18,0,0,0,1.4-2.81C293.13,102.78,292.9,102.31,292.77,102.32Z" style="fill:#263238"></path><path d="M319.78,85.89a1.79,1.79,0,0,1-.45-1.06,2.3,2.3,0,0,1,.41-.83,1.91,1.91,0,0,0-1-2.61,5.09,5.09,0,0,0-.71-6.17,1.85,1.85,0,0,1-.67-.93,2,2,0,0,1,.24-1c.81-2.17-.78-4.43-2.28-6.19-1.79-2.1-3.73-4.29-6.36-5.14a11.31,11.31,0,0,1-1.91-.65,8.42,8.42,0,0,1-1.44-1.16,11.62,11.62,0,0,0-11.77-2,8.28,8.28,0,0,1-1.37.49,7,7,0,0,1-1.45.11,16.69,16.69,0,0,0-8.52,2.56A16,16,0,0,1,280,62.83c-.59.23-1.72.18-2.23.57a2.3,2.3,0,0,0-.79,2.71c-3.56,1.63-3.83,4-3.53,7,.12,1.21.81,2.56,2,2.7a3,3,0,0,0,2-.67,13,13,0,0,0,2.42-2.08,5.41,5.41,0,0,1,1.38-1.28,5.69,5.69,0,0,1,1.57-.47,11.24,11.24,0,0,0,6.23-3.85c.31-.39.69-.83,1.19-.79a1.68,1.68,0,0,1,.56.22,7.28,7.28,0,0,0,7.88-.84,10.15,10.15,0,0,0,8.81,7.16c.48,0,1,.08,1.27.49a1.34,1.34,0,0,1,.05,1c-1,5.52-.49,12,.15,17.58.57,5,2.75,8.24,4.77,8.58l3.85-6.76,1.88-3.32A4.15,4.15,0,0,0,319.78,85.89Z" style="fill:#e0e0e0"></path><path d="M289.48,58.77c0-.05-.48-.11-1.16.32a1.4,1.4,0,0,0-.62,1.32,1,1,0,0,0,1.71.68l-.44-.47a3.71,3.71,0,0,0-.78.93,3.46,3.46,0,0,0,.06,3.74c.57.83,1.18,1,1.21,1s-.41-.43-.81-1.21a3.3,3.3,0,0,1,.74-4l-.44-.47a.36.36,0,0,1-.41,0,.45.45,0,0,1-.29-.36,1,1,0,0,1,.33-.91C289.06,59,289.52,58.86,289.48,58.77Z" style="fill:#fff"></path><path d="M276.44,66.38c0-.06-.34.09-.33.58a1.06,1.06,0,0,0,.33.76.76.76,0,0,0,1.19-.12l-.54-.11a2.07,2.07,0,0,0,1.42,1.86,2.18,2.18,0,0,0,1.13.05l-.39-.3a3.62,3.62,0,0,0,.3,1.4,1.72,1.72,0,0,0,.83.85c.66.29,1.07,0,1-.06s-.39,0-.82-.3a2.2,2.2,0,0,1-.69-1.92v-.38l-.39.08a1.53,1.53,0,0,1-.79,0,1.57,1.57,0,0,1-1-1.28l-.2-1.67-.34,1.57c0,.08-.23.14-.37,0a.77.77,0,0,1-.31-.44C276.35,66.6,276.48,66.42,276.44,66.38Z" style="fill:#fff"></path><path d="M312.45,93.24c.2-.09,7.85-2.65,7.9,5.25s-7.9,6.33-7.91,6.1S312.45,93.24,312.45,93.24Z" style="fill:#ffbe9d"></path><path d="M314.83,101.58s.14.1.38.2a1.39,1.39,0,0,0,1,0c.84-.32,1.53-1.65,1.56-3.07a4.48,4.48,0,0,0-.4-2,1.57,1.57,0,0,0-1-1.05.71.71,0,0,0-.81.38c-.1.22-.05.38-.09.4s-.17-.14-.11-.46a.87.87,0,0,1,.3-.5,1,1,0,0,1,.76-.21,1.94,1.94,0,0,1,1.45,1.22,4.6,4.6,0,0,1,.49,2.2c0,1.59-.84,3.09-2,3.43a1.52,1.52,0,0,1-1.26-.2C314.85,101.77,314.81,101.6,314.83,101.58Z" style="fill:#eb996e"></path><path d="M319.48,78.4c.1-.08.65.37,1.24,1.35a9.7,9.7,0,0,1,.53,8.59c-.47,1-1,1.55-1.07,1.49-.28-.14,1-2.57.77-5.79S319.22,78.57,319.48,78.4Z" style="fill:#92E3A9"></path><path d="M296.32,103.4c-.15,0-.34-.77-.95-1.48s-1.34-1-1.29-1.19,1,0,1.69.85S296.46,103.41,296.32,103.4Z" style="fill:#eb996e"></path><path d="M304,89c.1.09-.48.85-1.58,1.16s-2,0-1.94-.17.86-.06,1.8-.34S303.93,88.92,304,89Z" style="fill:#eb996e"></path><path d="M304.53,91.54c-.09.12-.73-.19-1.57-.39s-1.55-.24-1.56-.38.75-.36,1.69-.13S304.61,91.43,304.53,91.54Z" style="fill:#eb996e"></path><path d="M275.06,91.43s.07,0,0,.13-.14.15-.23.17a1.26,1.26,0,0,1-.66-.06c-.46-.14-.76-.4-.71-.53s.44-.1.86,0a5,5,0,0,1,.5.18l.09.07S275,91.42,275.06,91.43Z" style="fill:#eb996e"></path><path d="M315.1,67.08A6.52,6.52,0,0,1,313,68.52a12.37,12.37,0,0,1-12-.65,6.36,6.36,0,0,1-2-1.67c.05-.07.78.59,2.14,1.35a13.51,13.51,0,0,0,5.75,1.68,13.64,13.64,0,0,0,5.91-1C314.25,67.58,315.05,67,315.1,67.08Z" style="fill:#263238"></path><path d="M317.79,71.48a9.3,9.3,0,0,1-2.34,1.59,9.76,9.76,0,0,1-2.9,1.1,10.47,10.47,0,0,1-3.82,0,16.1,16.1,0,0,1-6.22-2.84,10.37,10.37,0,0,1-2.18-1.8,25.86,25.86,0,0,1,2.38,1.5,18.23,18.23,0,0,0,6.12,2.63,10.37,10.37,0,0,0,3.63.07,10.1,10.1,0,0,0,2.83-1C316.84,72,317.75,71.41,317.79,71.48Z" style="fill:#263238"></path><path d="M335.66,90.79a4.7,4.7,0,0,0-.49-2,2.92,2.92,0,0,0-1.62-1.35,3.07,3.07,0,0,0-2.57.29l-.4.25v-.47a2.69,2.69,0,0,0-.4-1.4,4.13,4.13,0,0,0-2.63-1.76,7.26,7.26,0,0,0-2.73,0,25.88,25.88,0,0,1-2.54.56,8.49,8.49,0,0,1,2.46-.92,6.94,6.94,0,0,1,2.9-.16,4.52,4.52,0,0,1,3,2,3.18,3.18,0,0,1,.46,1.68l-.39-.22a3.45,3.45,0,0,1,3-.28,3.17,3.17,0,0,1,1.77,1.62A2.46,2.46,0,0,1,335.66,90.79Z" style="fill:#263238"></path><g style="opacity:0.30000000000000004"><path d="M262.7,198,268,159.38A58.1,58.1,0,0,0,262.7,198Z"></path></g><g style="opacity:0.30000000000000004"><path d="M357.72,200.34a12.29,12.29,0,0,0-7-1c-3.39.37-7.22,1.39-8.85,4,2.41-1.45,6.15-2.47,9.08-1.6s5.35,2.9,7.57,5c.71.68,1.8,1.41,2.57.8a1.78,1.78,0,0,0,.51-1.49A6.94,6.94,0,0,0,357.72,200.34Z"></path></g></g><g id="freepik--Floor--inject-116"><path d="M468.37,476.85c0,.15-97.78.27-218.36.27S31.63,477,31.63,476.85s97.75-.26,218.38-.26S468.37,476.71,468.37,476.85Z" style="fill:#263238"></path></g></svg>