<svg xmlns="http://www.w3.org/2000/svg" viewBox="0 0 236.99 236.99"><defs><style>.cls-1{fill:none;}.cls-2{fill:#00ff9d;stroke:#00ff9d;stroke-miterlimit:10;}</style></defs><title>Presynce Logo</title><g id="Layer_2" data-name="Layer 2"><g id="Main_Logo" data-name="Main Logo"><rect class="cls-1" width="236.99" height="236.99" rx="20.65"/><path class="cls-2" d="M214.89,117.33a99,99,0,0,1-.72,12q-.48,4-1.28,7.89-.62,3-1.39,5.85a98,98,0,0,1-9.14,22.44q-2.1,3.75-4.5,7.28A98.65,98.65,0,0,1,126,215.56c-3.21.32-6.48.48-9.79.48a98.89,98.89,0,0,1-17.66-1.58,97.53,97.53,0,0,1-24.1-7.66,98.65,98.65,0,0,1-20.94-13.23,4.75,4.75,0,0,1-1.54-5l.62-2.11,4.09-14,27.75.07-2.49,8.54a22.73,22.73,0,0,0,17.69,28.78l.26,0a94.34,94.34,0,0,0,16.32,1.41,96.59,96.59,0,0,0,11.22-.66,93.89,93.89,0,0,0,64.65-37.86q2.58-3.53,4.83-7.28a93.41,93.41,0,0,0,9.69-22.43c.56-1.93,1-3.88,1.47-5.86q.84-3.9,1.35-7.9a96.45,96.45,0,0,0,.75-12,95.1,95.1,0,0,0-.58-10.46h0a13.42,13.42,0,0,0-13.3-11.94l-35.1-.09-27.76-.06-26.32-.07-3.55,12.16h41.93a9.14,9.14,0,0,1,8.78,11.7l-3.09,10.6-2.3,7.9-.7,2.14h0c-4.19,14.38-19.88,26.12-34.87,26.08h-.43l-26.32-.06-27.75-.07-23.54-.06H33.78a6.63,6.63,0,0,1-5.9-3.62,98.09,98.09,0,0,1-7-18.41Q20,140,19.4,136.75c-.52-2.6-.94-5.24-1.25-7.9a99.55,99.55,0,0,1-.12-22,98.17,98.17,0,0,1,10.2-34.36,98.59,98.59,0,0,1,88-53.88,100.39,100.39,0,0,1,12.82.83,98.52,98.52,0,0,1,61.78,33.25L192,54.16a2.91,2.91,0,0,1,0,1.66,2.21,2.21,0,0,1-.76,1.07,2.6,2.6,0,0,1-2.94.26c-.36-.44-.73-.87-1.1-1.3h0a95.06,95.06,0,0,0-11.45-11.16,93.9,93.9,0,0,0-59.6-21.31,93.92,93.92,0,0,0-94,94,95.32,95.32,0,0,0,.7,11.53q.49,4,1.31,7.9h0A8,8,0,0,0,32,143.07h82.74a6.12,6.12,0,0,0,5.87-4.41l.49-1.66,1.33-4.57A2.6,2.6,0,0,0,120,129.1L97.08,129l-2.3,7.9L67,136.87l2.3-7.9,6.44-22.1,3.56-12.22L83.54,80.2a10.67,10.67,0,0,1,10.24-7.69H201.62a4.11,4.11,0,0,1,3.7,2.36,98.75,98.75,0,0,1,9.57,42.46Z"/></g></g></svg>